# Blender 4.2.2 LTS
# www.blender.org
mtllib BookStyle24.mtl
o Plane.001
v -0.772659 0.000000 1.231588
v 0.772659 0.000000 1.231588
v 0.772659 0.000000 -1.231588
v -0.772659 0.000000 -1.231588
v -0.772659 0.246682 1.231588
v 0.772659 0.246682 1.231588
v 0.772659 0.246682 -1.231588
v -0.772659 0.246682 -1.231588
v -0.772659 0.000000 1.231587
v 0.772659 0.000000 1.231587
v -0.772659 0.000000 -1.231587
v 0.772659 0.000000 -1.231587
v -0.772659 0.246682 1.231587
v 0.772659 0.246682 1.231587
v -0.772659 0.246682 -1.231587
v 0.772659 0.246682 -1.231587
v 0.816455 0.245578 -1.301377
v 0.816455 0.245578 1.301377
v -0.827625 0.244996 1.277038
v -0.827625 0.244996 -1.277038
v 0.816455 0.001104 -1.301377
v 0.816455 0.001104 1.301377
v -0.827625 0.001686 1.277038
v -0.827625 0.001686 -1.277038
v -0.772659 0.000000 1.231587
v 0.772659 0.000000 1.231587
v 0.772659 0.000000 -1.231587
v -0.772659 0.000000 -1.231587
v -0.772659 0.246682 1.231587
v 0.772659 0.246682 1.231587
v 0.772659 0.246682 -1.231587
v -0.772659 0.246682 -1.231587
v -0.768398 0.000000 -1.228191
v -0.768398 0.000000 1.228191
v 0.769290 0.000000 1.226217
v 0.769290 0.000000 -1.226217
v -0.768398 0.246682 -1.228191
v -0.768398 0.246682 1.228191
v 0.769290 0.246682 1.226217
v 0.769290 0.246682 -1.226217
v -0.769908 -0.044156 -1.227202
v -0.769908 -0.044156 1.227202
v 0.769908 -0.044156 1.227202
v 0.769908 -0.044156 -1.227202
v -0.769908 0.290838 -1.227202
v -0.769908 0.290838 1.227202
v 0.769908 0.290838 1.227202
v 0.769908 0.290838 -1.227202
v -0.817950 -0.041404 -1.300874
v -0.817950 -0.041404 1.300874
v 0.817073 -0.043053 1.302363
v 0.817073 -0.043053 -1.302363
v -0.817950 0.288086 -1.300874
v -0.817950 0.288086 1.300874
v 0.817073 0.289734 1.302363
v 0.817073 0.289734 -1.302363
vn -0.0000 -0.0000 -1.0000
vn -0.0000 -0.0000 1.0000
vn 1.0000 -0.0000 -0.0000
vn -1.0000 -0.0000 -0.0000
vn -0.0074 -0.2728 -0.9620
vn -0.0000 1.0000 -0.0000
vn -0.0074 -0.2728 0.9620
vn -0.6233 -0.0000 -0.7820
vn -0.0000 -1.0000 -0.0000
vn -0.6233 -0.0000 0.7820
vn 0.0003 0.9997 -0.0225
vn 0.6363 -0.0000 -0.7715
vn -0.0005 0.9997 0.0259
vn 0.0003 -0.9997 0.0225
vn -0.0572 0.9984 -0.0000
vn -0.0234 -0.9997 -0.0000
vn -0.0005 -0.9997 -0.0259
vn 0.0003 -0.9997 -0.0225
vn 0.0234 -0.9997 -0.0000
vn -0.0074 0.2728 -0.9620
vn -0.0074 0.2728 0.9620
vn 0.9999 -0.0140 -0.0000
vn -0.9757 0.2191 -0.0000
vn 0.9999 0.0140 -0.0000
vn -0.9757 -0.2191 -0.0000
vn 0.0234 0.9997 -0.0000
vn 0.6363 -0.0000 0.7715
vn -0.0234 0.9997 -0.0000
vn -0.0005 0.9997 -0.0259
vn -0.0572 -0.9984 -0.0000
vn 0.0003 0.9997 0.0225
vn -0.0005 -0.9997 0.0259
vt 1.000000 1.000000
vt 0.000000 1.000000
vt 0.000000 0.000000
vt 1.000000 0.000000
vt 0.052041 0.661463
vt 0.052041 0.990794
vt 0.027240 0.990794
vt 0.027240 0.661463
vt 0.000049 0.999529
vt 0.000049 0.653715
vt 0.028427 0.659686
vt 0.026609 0.999951
vt 0.056869 0.663561
vt 0.055041 0.999543
vt 0.028480 0.999935
vt 0.028480 0.669501
vt 0.057013 0.769581
vt 0.057013 0.653715
vt 0.004298 0.654507
vt 0.004298 0.768789
vt 0.054725 0.758703
vt 0.054534 0.673946
vt 0.082829 0.650974
vt 0.083585 0.781244
vt 0.970862 0.930141
vt 0.029139 0.930103
vt 0.028948 0.989039
vt 0.971051 0.989041
vt 0.029138 0.673908
vt 0.000843 0.650936
vt 0.000844 0.953076
vt 0.000088 0.966499
vt 0.999912 0.966499
vt 0.056914 0.653715
vt 0.055086 0.999528
vt 0.028525 0.999920
vt 0.028526 0.659655
vt 0.000034 0.999544
vt 0.000034 0.663561
vt 0.028412 0.669532
vt 0.026594 0.999966
vt 0.000033 0.999589
vt 0.000033 0.669573
vt 0.026768 0.669195
vt 0.026768 0.999967
vt 0.000045 0.999955
vt 0.000045 0.652302
vt 0.053569 0.669573
vt 0.053569 0.999589
vt 0.026834 0.999967
vt 0.026834 0.669195
vt 0.079236 0.652302
vt 0.079236 0.999955
vt 0.028949 0.758702
vt 0.000088 0.781244
vt 0.056303 0.653715
vt 0.056303 0.769581
vt 0.004397 0.768789
vt 0.004397 0.654507
vt 0.999157 0.953113
s 0
usemtl Material.002
f 3/1/1 4/2/1 8/2/1 7/1/1
f 1/3/2 2/4/2 6/4/2 5/3/2
f 2/4/3 3/1/3 7/1/3 6/4/3
usemtl Material.001
f 24/5/4 23/6/4 19/7/4 20/8/4
f 17/9/5 20/10/5 53/11/5 56/12/5
f 12/1/6 11/2/6 28/2/6 27/1/6
f 14/4/6 13/3/6 29/3/6 30/4/6
f 15/2/6 16/1/6 31/1/6 32/2/6
f 19/13/7 18/14/7 55/15/7 54/16/7
f 9/3/8 13/3/8 38/3/8 34/3/8
f 12/1/9 10/4/9 35/4/9 36/1/9
f 14/4/6 16/1/6 40/1/6 39/4/6
f 15/2/10 11/2/10 33/2/10 37/2/10
f 10/4/9 9/3/9 34/3/9 35/4/9
f 11/2/9 12/1/9 36/1/9 33/2/9
f 13/3/6 14/4/6 39/4/6 38/3/6
f 16/1/6 15/2/6 37/2/6 40/1/6
f 9/3/6 10/4/6 26/4/6 25/3/6
f 11/2/6 15/2/6 32/2/6 28/2/6
f 16/1/6 14/4/6 30/4/6 31/1/6
f 10/4/6 12/1/6 27/1/6 26/4/6
f 13/3/6 9/3/6 25/3/6 29/3/6
f 35/4/11 34/3/11 23/3/11 22/4/11
f 37/17/12 33/18/12 24/19/12 20/20/12
f 47/21/13 46/22/13 54/23/13 55/24/13
f 42/25/9 41/26/9 44/27/9 43/28/9
f 46/3/6 47/4/6 48/1/6 45/2/6
f 40/1/14 37/2/14 20/2/14 17/1/14
f 46/22/15 45/29/15 53/30/15 54/23/15
f 39/4/16 40/1/16 17/1/16 18/4/16
f 44/27/17 41/26/17 49/31/17 52/32/17
f 38/3/18 39/4/18 18/4/18 19/3/18
f 43/28/19 44/27/19 52/32/19 51/33/19
f 24/34/20 21/35/20 52/36/20 49/37/20
f 22/38/21 23/39/21 50/40/21 51/41/21
f 18/42/22 17/43/22 56/44/22 55/45/22
f 20/8/23 19/7/23 54/46/23 53/47/23
f 21/48/24 22/49/24 51/50/24 52/51/24
f 23/6/25 24/5/25 49/52/25 50/53/25
f 48/54/26 47/21/26 55/24/26 56/55/26
f 34/56/27 38/57/27 19/58/27 23/59/27
f 36/1/28 35/4/28 22/4/28 21/1/28
f 45/29/29 48/54/29 56/55/29 53/30/29
f 41/26/30 42/25/30 50/60/30 49/31/30
f 33/2/31 36/1/31 21/1/31 24/2/31
f 42/25/32 43/28/32 51/33/32 50/60/32
