# Blender 4.2.2 LTS
# www.blender.org
mtllib BookStyle13.mtl
o Plane.001
v -0.772659 0.000000 1.231588
v 0.772659 0.000000 1.231588
v 0.772659 0.000000 -1.231588
v -0.772659 0.000000 -1.231588
v -0.772659 0.246682 1.231588
v 0.772659 0.246682 1.231588
v 0.772659 0.246682 -1.231588
v -0.772659 0.246682 -1.231588
v -0.772659 0.000000 1.231587
v 0.772659 0.000000 1.231587
v -0.772659 0.000000 -1.231587
v 0.772659 0.000000 -1.231587
v -0.772659 0.246682 1.231587
v 0.772659 0.246682 1.231587
v -0.772659 0.246682 -1.231587
v 0.772659 0.246682 -1.231587
v 0.816455 0.245578 -1.301377
v 0.816455 0.245578 1.301377
v -0.827625 0.244996 1.277038
v -0.827625 0.244996 -1.277038
v 0.816455 0.001104 -1.301377
v 0.816455 0.001104 1.301377
v -0.827625 0.001686 1.277038
v -0.827625 0.001686 -1.277038
v -0.772659 0.000000 1.231587
v 0.772659 0.000000 1.231587
v 0.772659 0.000000 -1.231587
v -0.772659 0.000000 -1.231587
v -0.772659 0.246682 1.231587
v 0.772659 0.246682 1.231587
v 0.772659 0.246682 -1.231587
v -0.772659 0.246682 -1.231587
v -0.768398 0.000000 -1.228191
v -0.768398 0.000000 1.228191
v 0.769290 0.000000 1.226217
v 0.769290 0.000000 -1.226217
v -0.768398 0.246682 -1.228191
v -0.768398 0.246682 1.228191
v 0.769290 0.246682 1.226217
v 0.769290 0.246682 -1.226217
v -0.769908 -0.044156 -1.227202
v -0.769908 -0.044156 1.227202
v 0.769908 -0.044156 1.227202
v 0.769908 -0.044156 -1.227202
v -0.769908 0.290838 -1.227202
v -0.769908 0.290838 1.227202
v 0.769908 0.290838 1.227202
v 0.769908 0.290838 -1.227202
v -0.817950 -0.041404 -1.300874
v -0.817950 -0.041404 1.300874
v 0.817073 -0.043053 1.302363
v 0.817073 -0.043053 -1.302363
v -0.817950 0.288086 -1.300874
v -0.817950 0.288086 1.300874
v 0.817073 0.289734 1.302363
v 0.817073 0.289734 -1.302363
vn -0.0000 -0.0000 -1.0000
vn -0.0000 -0.0000 1.0000
vn 1.0000 -0.0000 -0.0000
vn -1.0000 -0.0000 -0.0000
vn -0.0074 -0.2728 -0.9620
vn -0.0000 1.0000 -0.0000
vn -0.0074 -0.2728 0.9620
vn -0.6233 -0.0000 -0.7820
vn -0.0000 -1.0000 -0.0000
vn -0.6233 -0.0000 0.7820
vn 0.0003 0.9997 -0.0225
vn 0.6363 -0.0000 -0.7715
vn -0.0005 0.9997 0.0259
vn 0.0003 -0.9997 0.0225
vn -0.0572 0.9984 -0.0000
vn -0.0234 -0.9997 -0.0000
vn -0.0005 -0.9997 -0.0259
vn 0.0003 -0.9997 -0.0225
vn 0.0234 -0.9997 -0.0000
vn -0.0074 0.2728 -0.9620
vn -0.0074 0.2728 0.9620
vn 0.9999 -0.0140 -0.0000
vn -0.9757 0.2191 -0.0000
vn 0.9999 0.0140 -0.0000
vn -0.9757 -0.2191 -0.0000
vn 0.0234 0.9997 -0.0000
vn 0.6363 -0.0000 0.7715
vn -0.0234 0.9997 -0.0000
vn -0.0005 0.9997 -0.0259
vn -0.0572 -0.9984 -0.0000
vn 0.0003 0.9997 0.0225
vn -0.0005 -0.9997 0.0259
vt 1.000000 1.000000
vt 0.000000 1.000000
vt 0.000000 0.000000
vt 1.000000 0.000000
vt 0.596918 0.210894
vt 0.990005 0.210929
vt 0.990000 0.296973
vt 0.596913 0.296938
vt 0.970858 0.326531
vt 0.616068 0.326495
vt 0.615877 0.175172
vt 0.971047 0.175173
vt 0.587773 0.195025
vt 0.587017 0.153575
vt 0.999907 0.153574
vt 0.028003 0.999588
vt 0.028003 0.697609
vt 0.055905 0.697231
vt 0.055905 0.999967
vt 0.999145 0.312842
vt 0.587766 0.312806
vt 0.027936 0.697609
vt 0.027936 0.999588
vt 0.000033 0.999967
vt 0.000033 0.697231
vt 0.999152 0.195060
s 0
usemtl Material.002
f 3/1/1 4/2/1 8/2/1 7/1/1
f 1/3/2 2/4/2 6/4/2 5/3/2
f 2/4/3 3/1/3 7/1/3 6/4/3
usemtl Material.001
f 24/5/4 23/6/4 19/7/4 20/8/4
f 17/1/5 20/2/5 53/2/5 56/1/5
f 12/1/6 11/2/6 28/2/6 27/1/6
f 14/4/6 13/3/6 29/3/6 30/4/6
f 15/2/6 16/1/6 31/1/6 32/2/6
f 19/3/7 18/4/7 55/4/7 54/3/7
f 9/3/8 13/3/8 38/3/8 34/3/8
f 12/1/9 10/4/9 35/4/9 36/1/9
f 14/4/6 16/1/6 40/1/6 39/4/6
f 15/2/10 11/2/10 33/2/10 37/2/10
f 10/4/9 9/3/9 34/3/9 35/4/9
f 11/2/9 12/1/9 36/1/9 33/2/9
f 13/3/6 14/4/6 39/4/6 38/3/6
f 16/1/6 15/2/6 37/2/6 40/1/6
f 9/3/6 10/4/6 26/4/6 25/3/6
f 11/2/6 15/2/6 32/2/6 28/2/6
f 16/1/6 14/4/6 30/4/6 31/1/6
f 10/4/6 12/1/6 27/1/6 26/4/6
f 13/3/6 9/3/6 25/3/6 29/3/6
f 35/4/11 34/3/11 23/3/11 22/4/11
f 37/2/12 33/2/12 24/2/12 20/2/12
f 47/4/13 46/3/13 54/3/13 55/4/13
f 42/9/9 41/10/9 44/11/9 43/12/9
f 46/3/6 47/4/6 48/1/6 45/2/6
f 40/1/14 37/2/14 20/2/14 17/1/14
f 46/3/15 45/2/15 53/2/15 54/3/15
f 39/4/16 40/1/16 17/1/16 18/4/16
f 44/11/17 41/10/17 49/13/17 52/14/17
f 38/3/18 39/4/18 18/4/18 19/3/18
f 43/12/19 44/11/19 52/14/19 51/15/19
f 24/2/20 21/1/20 52/1/20 49/2/20
f 22/4/21 23/3/21 50/3/21 51/4/21
f 18/16/22 17/17/22 56/18/22 55/19/22
f 20/8/23 19/7/23 54/20/23 53/21/23
f 21/22/24 22/23/24 51/24/24 52/25/24
f 23/6/25 24/5/25 49/13/25 50/26/25
f 48/1/26 47/4/26 55/4/26 56/1/26
f 34/3/27 38/3/27 19/3/27 23/3/27
f 36/1/28 35/4/28 22/4/28 21/1/28
f 45/2/29 48/1/29 56/1/29 53/2/29
f 41/10/30 42/9/30 50/26/30 49/13/30
f 33/2/31 36/1/31 21/1/31 24/2/31
f 42/9/32 43/12/32 51/15/32 50/26/32
