# Blender 4.2.2 LTS
# www.blender.org
mtllib BookStyle8.mtl
o Plane.001
v -0.772659 0.000000 1.231588
v 0.772659 0.000000 1.231588
v 0.772659 0.000000 -1.231588
v -0.772659 0.000000 -1.231588
v -0.772659 0.246682 1.231588
v 0.772659 0.246682 1.231588
v 0.772659 0.246682 -1.231588
v -0.772659 0.246682 -1.231588
v -0.772659 0.000000 1.231587
v 0.772659 0.000000 1.231587
v -0.772659 0.000000 -1.231587
v 0.772659 0.000000 -1.231587
v -0.772659 0.246682 1.231587
v 0.772659 0.246682 1.231587
v -0.772659 0.246682 -1.231587
v 0.772659 0.246682 -1.231587
v 0.816455 0.245578 -1.301377
v 0.816455 0.245578 1.301377
v -0.827625 0.244996 1.277038
v -0.827625 0.244996 -1.277038
v 0.816455 0.001104 -1.301377
v 0.816455 0.001104 1.301377
v -0.827625 0.001686 1.277038
v -0.827625 0.001686 -1.277038
v -0.772659 0.000000 1.231587
v 0.772659 0.000000 1.231587
v 0.772659 0.000000 -1.231587
v -0.772659 0.000000 -1.231587
v -0.772659 0.246682 1.231587
v 0.772659 0.246682 1.231587
v 0.772659 0.246682 -1.231587
v -0.772659 0.246682 -1.231587
v -0.768398 0.000000 -1.228191
v -0.768398 0.000000 1.228191
v 0.769290 0.000000 1.226217
v 0.769290 0.000000 -1.226217
v -0.768398 0.246682 -1.228191
v -0.768398 0.246682 1.228191
v 0.769290 0.246682 1.226217
v 0.769290 0.246682 -1.226217
v -0.769908 -0.044156 -1.227202
v -0.769908 -0.044156 1.227202
v 0.769908 -0.044156 1.227202
v 0.769908 -0.044156 -1.227202
v -0.769908 0.290838 -1.227202
v -0.769908 0.290838 1.227202
v 0.769908 0.290838 1.227202
v 0.769908 0.290838 -1.227202
v -0.817950 -0.041404 -1.300874
v -0.817950 -0.041404 1.300874
v 0.817073 -0.043053 1.302363
v 0.817073 -0.043053 -1.302363
v -0.817950 0.288086 -1.300874
v -0.817950 0.288086 1.300874
v 0.817073 0.289734 1.302363
v 0.817073 0.289734 -1.302363
vn -0.0000 -0.0000 -1.0000
vn -0.0000 -0.0000 1.0000
vn 1.0000 -0.0000 -0.0000
vn -1.0000 -0.0000 -0.0000
vn -0.0074 -0.2728 -0.9620
vn -0.0000 1.0000 -0.0000
vn -0.0074 -0.2728 0.9620
vn -0.6233 -0.0000 -0.7820
vn -0.0000 -1.0000 -0.0000
vn -0.6233 -0.0000 0.7820
vn 0.0003 0.9997 -0.0225
vn 0.6363 -0.0000 -0.7715
vn -0.0005 0.9997 0.0259
vn 0.0003 -0.9997 0.0225
vn -0.0572 0.9984 -0.0000
vn -0.0234 -0.9997 -0.0000
vn -0.0005 -0.9997 -0.0259
vn 0.0003 -0.9997 -0.0225
vn 0.0234 -0.9997 -0.0000
vn -0.0074 0.2728 -0.9620
vn -0.0074 0.2728 0.9620
vn 0.9999 -0.0140 -0.0000
vn -0.9757 0.2191 -0.0000
vn 0.9999 0.0140 -0.0000
vn -0.9757 -0.2191 -0.0000
vn 0.0234 0.9997 -0.0000
vn 0.6363 -0.0000 0.7715
vn -0.0234 0.9997 -0.0000
vn -0.0005 0.9997 -0.0259
vn -0.0572 -0.9984 -0.0000
vn 0.0003 0.9997 0.0225
vn -0.0005 -0.9997 0.0259
vt 1.000000 1.000000
vt 0.000000 1.000000
vt 0.000000 0.000000
vt 1.000000 0.000000
vt 0.006014 0.027691
vt 0.201523 0.025938
vt 0.201817 0.083639
vt 0.006308 0.085391
vt 0.000085 0.164850
vt 0.017939 0.097021
vt 0.018996 0.151372
vt 0.207746 0.166458
vt 0.189562 0.155694
vt 0.188806 0.098515
vt 0.168848 0.138966
vt 0.166168 0.113537
vt 0.165651 0.045895
vt 0.041662 0.047748
vt 0.038982 0.077532
vt 0.170167 0.078395
vt 0.042180 0.115389
vt 0.038982 0.027577
vt 0.041662 -0.002207
vt 0.019024 0.012814
vt 0.018268 0.010849
vt 0.170167 0.028440
vt 0.188834 0.015170
vt 0.000085 0.000085
vt 0.207746 0.001693
vt 0.189892 0.014309
vt 0.037664 0.138103
vt 0.165651 -0.004060
s 0
usemtl Material.002
f 3/1/1 4/2/1 8/2/1 7/1/1
f 1/3/2 2/4/2 6/4/2 5/3/2
f 2/4/3 3/1/3 7/1/3 6/4/3
usemtl Material.001
f 24/5/4 23/6/4 19/7/4 20/8/4
f 17/9/5 20/8/5 53/10/5 56/11/5
f 12/1/6 11/2/6 28/2/6 27/1/6
f 14/4/6 13/3/6 29/3/6 30/4/6
f 15/2/6 16/1/6 31/1/6 32/2/6
f 19/7/7 18/12/7 55/13/7 54/14/7
f 9/3/8 13/3/8 38/3/8 34/3/8
f 12/1/9 10/4/9 35/4/9 36/1/9
f 14/4/6 16/1/6 40/1/6 39/4/6
f 15/2/10 11/2/10 33/2/10 37/2/10
f 10/4/9 9/3/9 34/3/9 35/4/9
f 11/2/9 12/1/9 36/1/9 33/2/9
f 13/3/6 14/4/6 39/4/6 38/3/6
f 16/1/6 15/2/6 37/2/6 40/1/6
f 9/3/6 10/4/6 26/4/6 25/3/6
f 11/2/6 15/2/6 32/2/6 28/2/6
f 16/1/6 14/4/6 30/4/6 31/1/6
f 10/4/6 12/1/6 27/1/6 26/4/6
f 13/3/6 9/3/6 25/3/6 29/3/6
f 35/4/11 34/3/11 23/3/11 22/4/11
f 37/2/12 33/2/12 24/2/12 20/2/12
f 47/15/13 46/16/13 54/14/13 55/13/13
f 42/17/9 41/18/9 44/19/9 43/20/9
f 46/3/6 47/4/6 48/1/6 45/2/6
f 40/1/14 37/2/14 20/2/14 17/1/14
f 46/16/15 45/21/15 53/10/15 54/14/15
f 39/4/16 40/1/16 17/1/16 18/4/16
f 44/22/17 41/23/17 49/24/17 52/25/17
f 38/3/18 39/4/18 18/4/18 19/3/18
f 43/26/19 44/22/19 52/25/19 51/27/19
f 24/5/20 21/28/20 52/25/20 49/24/20
f 22/29/21 23/6/21 50/30/21 51/27/21
f 18/12/22 17/9/22 56/11/22 55/13/22
f 20/8/23 19/7/23 54/14/23 53/10/23
f 21/28/24 22/29/24 51/27/24 52/25/24
f 23/6/25 24/5/25 49/24/25 50/30/25
f 48/31/26 47/15/26 55/13/26 56/11/26
f 34/3/27 38/3/27 19/3/27 23/3/27
f 36/1/28 35/4/28 22/4/28 21/1/28
f 45/21/29 48/31/29 56/11/29 53/10/29
f 41/23/30 42/32/30 50/30/30 49/24/30
f 33/2/31 36/1/31 21/1/31 24/2/31
f 42/32/32 43/26/32 51/27/32 50/30/32
