# Blender 4.2.1 LTS
# www.blender.org
mtllib glasspanedoor.mtl
o Cube.002
v -0.010000 0.200000 0.300000
v -0.010000 1.800000 0.300000
v -0.010000 0.200000 -0.300000
v -0.010000 1.800000 -0.300000
v 0.010000 0.200000 0.300000
v 0.010000 1.800000 0.300000
v 0.010000 0.200000 -0.300000
v 0.010000 1.800000 -0.300000
v -0.010000 2.000000 0.300000
v -0.010000 4.300000 0.300000
v -0.010000 2.000000 -0.300000
v -0.010000 4.300000 -0.300000
v 0.010000 2.000000 0.300000
v 0.010000 4.300000 0.300000
v 0.010000 2.000000 -0.300000
v 0.010000 4.300000 -0.300000
vn -1.0000 -0.0000 -0.0000
vn -0.0000 -0.0000 -1.0000
vn 1.0000 -0.0000 -0.0000
vn -0.0000 -0.0000 1.0000
vn -0.0000 -1.0000 -0.0000
vn -0.0000 1.0000 -0.0000
vt 0.375000 0.000000
vt 0.625000 0.000000
vt 0.625000 0.250000
vt 0.375000 0.250000
vt 0.625000 0.500000
vt 0.375000 0.500000
vt 0.625000 0.750000
vt 0.375000 0.750000
vt 0.625000 1.000000
vt 0.375000 1.000000
vt 0.125000 0.500000
vt 0.125000 0.750000
vt 0.875000 0.500000
vt 0.875000 0.750000
s 0
usemtl Material.001
f 1/1/1 2/2/1 4/3/1 3/4/1
f 3/4/2 4/3/2 8/5/2 7/6/2
f 7/6/3 8/5/3 6/7/3 5/8/3
f 5/8/4 6/7/4 2/9/4 1/10/4
f 3/11/5 7/6/5 5/8/5 1/12/5
f 8/5/6 4/13/6 2/14/6 6/7/6
f 9/1/1 10/2/1 12/3/1 11/4/1
f 11/4/2 12/3/2 16/5/2 15/6/2
f 15/6/3 16/5/3 14/7/3 13/8/3
f 13/8/4 14/7/4 10/9/4 9/10/4
f 11/11/5 15/6/5 13/8/5 9/12/5
f 16/5/6 12/13/6 10/14/6 14/7/6
o Cube.001
v -0.050000 0.000000 0.300000
v -0.050000 0.000000 -0.300000
v -0.050000 0.200000 0.300000
v 0.050000 0.000000 0.300000
v 0.050000 0.000000 -0.300000
v 0.050000 0.200000 0.300000
v 0.050000 0.200000 -0.300000
v -0.050000 0.200000 -0.300000
v -0.050000 4.300004 0.300000
v -0.050000 4.500004 0.300000
v -0.050000 4.300004 -0.300000
v -0.050000 4.500004 -0.300000
v 0.050000 4.300004 0.300000
v 0.050000 4.500004 0.300000
v 0.050000 4.300004 -0.300000
v 0.050000 4.500004 -0.300000
v -0.050000 0.000000 -0.300000
v -0.050000 0.000000 -0.500000
v -0.050000 4.500000 -0.300000
v 0.050000 0.000000 -0.300000
v 0.050000 0.000000 -0.500000
v 0.050000 4.500000 -0.300000
v 0.050000 4.500000 -0.500000
v -0.050000 4.500000 -0.500000
v -0.050000 0.000000 0.500000
v -0.050000 0.000000 0.300000
v -0.050000 4.500000 0.500000
v 0.050000 0.000000 0.500000
v 0.050000 0.000000 0.300000
v 0.050000 4.500000 0.500000
v 0.050000 4.500000 0.300000
v -0.050000 4.500000 0.300000
v -0.050000 1.800000 0.300000
v -0.050000 1.800000 -0.300000
v -0.050000 2.000000 0.300000
v 0.050000 1.800000 0.300000
v 0.050000 1.800000 -0.300000
v 0.050000 2.000000 0.300000
v 0.050000 2.000000 -0.300000
v -0.050000 2.000000 -0.300000
vn -0.0000 -1.0000 -0.0000
vn -1.0000 -0.0000 -0.0000
vn -0.0000 -0.0000 1.0000
vn 1.0000 -0.0000 -0.0000
vn -0.0000 1.0000 -0.0000
vn -0.0000 -0.0000 -1.0000
vt 0.125000 0.500000
vt 0.375000 0.500000
vt 0.375000 0.750000
vt 0.125000 0.750000
vt 0.375000 0.000000
vt 0.625000 0.000000
vt 0.625000 0.250000
vt 0.375000 0.250000
vt 0.625000 0.750000
vt 0.625000 1.000000
vt 0.375000 1.000000
vt 0.625000 0.500000
vt 0.875000 0.500000
vt 0.875000 0.750000
s 0
usemtl Material.002
f 18/15/7 21/16/7 20/17/7 17/18/7
f 17/19/8 19/20/8 24/21/8 18/22/8
f 20/17/9 22/23/9 19/24/9 17/25/9
f 21/16/10 23/26/10 22/23/10 20/17/10
f 23/26/11 24/27/11 19/28/11 22/23/11
f 18/22/12 24/21/12 23/26/12 21/16/12
f 25/19/8 26/20/8 28/21/8 27/22/8
f 27/22/12 28/21/12 32/26/12 31/16/12
f 31/16/10 32/26/10 30/23/10 29/17/10
f 29/17/9 30/23/9 26/24/9 25/25/9
f 27/15/7 31/16/7 29/17/7 25/18/7
f 32/26/11 28/27/11 26/28/11 30/23/11
f 34/15/7 37/16/7 36/17/7 33/18/7
f 33/19/8 35/20/8 40/21/8 34/22/8
f 36/17/9 38/23/9 35/24/9 33/25/9
f 37/16/10 39/26/10 38/23/10 36/17/10
f 39/26/11 40/27/11 35/28/11 38/23/11
f 34/22/12 40/21/12 39/26/12 37/16/12
f 42/15/7 45/16/7 44/17/7 41/18/7
f 41/19/8 43/20/8 48/21/8 42/22/8
f 44/17/9 46/23/9 43/24/9 41/25/9
f 45/16/10 47/26/10 46/23/10 44/17/10
f 47/26/11 48/27/11 43/28/11 46/23/11
f 42/22/12 48/21/12 47/26/12 45/16/12
f 50/15/7 53/16/7 52/17/7 49/18/7
f 49/19/8 51/20/8 56/21/8 50/22/8
f 52/17/9 54/23/9 51/24/9 49/25/9
f 53/16/10 55/26/10 54/23/10 52/17/10
f 55/26/11 56/27/11 51/28/11 54/23/11
f 50/22/12 56/21/12 55/26/12 53/16/12
