# Blender 4.2.1 LTS
# www.blender.org
mtllib lightswitch3.mtl
o Cube
v -3.000000 7.000000 -12.000000
v -3.000000 -7.000000 -12.000000
v -3.000000 7.000000 12.000000
v -3.000000 -7.000000 12.000000
v 2.399879 7.000000 -12.000000
v 3.000000 5.599718 -9.599516
v 2.533418 6.964892 -11.939815
v 2.660262 6.861329 -11.762278
v 2.774048 6.694502 -11.476290
v 2.869072 6.472780 -11.096193
v 2.940569 6.207277 -10.641047
v 2.984954 5.911310 -10.133674
v 3.000000 -5.599718 -9.599516
v 2.399879 -7.000000 -12.000000
v 2.984954 -5.911310 -10.133674
v 2.940569 -6.207277 -10.641047
v 2.869072 -6.472780 -11.096193
v 2.774048 -6.694502 -11.476290
v 2.660262 -6.861329 -11.762278
v 2.533418 -6.964892 -11.939815
v 3.000000 5.599718 9.599516
v 2.399879 7.000000 12.000000
v 2.984954 5.911310 10.133674
v 2.940569 6.207277 10.641047
v 2.869072 6.472780 11.096193
v 2.774048 6.694502 11.476290
v 2.660262 6.861329 11.762278
v 2.533418 6.964892 11.939815
v 3.000000 -5.599718 9.599516
v 2.399879 -7.000000 12.000000
v 2.984954 -5.911310 10.133674
v 2.940569 -6.207277 10.641047
v 2.869072 -6.472780 11.096193
v 2.774048 -6.694502 11.476290
v 2.660262 -6.861329 11.762278
v 2.533418 -6.964892 11.939815
vn -0.0000 -1.0000 -0.0000
vn -1.0000 -0.0000 -0.0000
vn -0.0000 -0.0000 1.0000
vn -0.0000 1.0000 -0.0000
vn 1.0000 -0.0000 -0.0000
vn 0.9996 -0.0000 -0.0282
vn 0.9962 -0.0000 -0.0871
vn 0.9879 -0.0000 -0.1552
vn 0.9701 -0.0000 -0.2425
vn 0.9292 -0.0000 -0.3697
vn 0.8137 -0.0000 -0.5813
vn 0.4109 -0.0000 -0.9117
vn 0.4109 -0.0000 0.9117
vn 0.8137 -0.0000 0.5813
vn 0.9292 -0.0000 0.3697
vn 0.9701 -0.0000 0.2425
vn 0.9879 -0.0000 0.1552
vn 0.9962 -0.0000 0.0871
vn 0.9996 -0.0000 0.0282
vn 0.2543 0.9671 -0.0000
vn 0.6324 0.7746 -0.0000
vn 0.8261 0.5635 -0.0000
vn 0.9191 0.3939 -0.0000
vn 0.9656 0.2600 -0.0000
vn 0.9889 0.1483 -0.0000
vn 0.9988 0.0482 -0.0000
vn 0.2543 -0.9671 -0.0000
vn 0.6324 -0.7746 -0.0000
vn 0.8261 -0.5635 -0.0000
vn 0.9191 -0.3939 -0.0000
vn 0.9656 -0.2600 -0.0000
vn 0.9889 -0.1483 -0.0000
vn 0.9988 -0.0482 -0.0000
vn -0.0000 -0.0000 -1.0000
vt 0.125000 0.500000
vt 0.349995 0.500000
vt 0.349995 0.750000
vt 0.125000 0.750000
vt 0.375000 0.000000
vt 0.625000 0.000000
vt 0.625000 0.250000
vt 0.375000 0.250000
vt 0.375000 0.775005
vt 0.625000 0.775005
vt 0.625000 1.000000
vt 0.375000 1.000000
vt 0.650005 0.500000
vt 0.875000 0.500000
vt 0.875000 0.750000
vt 0.650005 0.750000
vt 0.400005 0.525005
vt 0.599995 0.525005
vt 0.599995 0.724995
vt 0.400005 0.724995
vt 0.394441 0.519441
vt 0.605559 0.519441
vt 0.389156 0.514156
vt 0.610844 0.514156
vt 0.384415 0.509415
vt 0.615585 0.509415
vt 0.380455 0.490585
vt 0.619545 0.490585
vt 0.377476 0.485844
vt 0.622524 0.485844
vt 0.375627 0.480559
vt 0.624373 0.480559
vt 0.375000 0.474995
vt 0.625000 0.474995
vt 0.375627 0.769441
vt 0.624373 0.769441
vt 0.377476 0.764156
vt 0.622524 0.764156
vt 0.380455 0.759415
vt 0.619545 0.759415
vt 0.384415 0.740585
vt 0.615585 0.740585
vt 0.389156 0.735844
vt 0.610844 0.735844
vt 0.394441 0.730559
vt 0.605559 0.730559
vt 0.644441 0.749373
vt 0.644441 0.500627
vt 0.639156 0.747524
vt 0.639156 0.502476
vt 0.634415 0.744545
vt 0.634415 0.505455
vt 0.355559 0.500627
vt 0.355559 0.749373
vt 0.360844 0.502476
vt 0.360844 0.747524
vt 0.365585 0.505455
vt 0.365585 0.744545
s 0
usemtl Material
f 2/1/1 14/2/1 30/3/1 4/4/1
f 4/5/2 3/6/2 1/7/2 2/8/2
f 30/9/3 22/10/3 3/11/3 4/12/3
f 5/13/4 1/14/4 3/15/4 22/16/4
f 13/17/5 6/18/5 21/19/5 29/20/5
f 6/18/6 13/17/6 15/21/6 12/22/6
f 12/22/7 15/21/7 16/23/7 11/24/7
f 11/24/8 16/23/8 17/25/8 10/26/8
f 10/26/9 17/25/9 18/27/9 9/28/9
f 9/28/10 18/27/10 19/29/10 8/30/10
f 8/30/11 19/29/11 20/31/11 7/32/11
f 7/32/12 20/31/12 14/33/12 5/34/12
f 22/10/13 30/9/13 36/35/13 28/36/13
f 28/36/14 36/35/14 35/37/14 27/38/14
f 27/38/15 35/37/15 34/39/15 26/40/15
f 26/40/16 34/39/16 33/41/16 25/42/16
f 25/42/17 33/41/17 32/43/17 24/44/17
f 24/44/18 32/43/18 31/45/18 23/46/18
f 23/46/19 31/45/19 29/20/19 21/19/19
f 5/13/20 22/16/20 28/47/20 7/48/20
f 7/48/21 28/47/21 27/49/21 8/50/21
f 8/50/22 27/49/22 26/51/22 9/52/22
f 9/52/23 26/51/23 25/42/23 10/26/23
f 10/26/24 25/42/24 24/44/24 11/24/24
f 11/24/25 24/44/25 23/46/25 12/22/25
f 12/22/26 23/46/26 21/19/26 6/18/26
f 30/3/27 14/2/27 20/53/27 36/54/27
f 36/54/28 20/53/28 19/55/28 35/56/28
f 35/56/29 19/55/29 18/57/29 34/58/29
f 34/58/30 18/57/30 17/25/30 33/41/30
f 33/41/31 17/25/31 16/23/31 32/43/31
f 32/43/32 16/23/32 15/21/32 31/45/32
f 31/45/33 15/21/33 13/17/33 29/20/33
f 2/8/34 1/7/34 5/34/34 14/33/34
o Cube.001
v 3.000000 -2.000000 1.000000
v 3.000000 2.000000 1.000000
v 3.000000 -2.000000 -1.000000
v 3.000000 2.000000 -1.000000
v 3.000000 -1.751455 1.000000
v 3.000000 -1.751455 -1.000000
v 4.000000 -1.751455 -1.000000
v 4.000000 -1.751455 1.000000
v 3.000000 -2.000000 1.000000
v 4.000000 -1.751455 1.000000
v 4.000000 -1.751455 -1.000000
v 3.000000 -2.000000 -1.000000
v 4.000000 -1.751455 1.000000
v 3.000000 2.000000 1.000000
v 3.000000 2.000000 -1.000000
v 4.000000 -1.751455 -1.000000
vn -1.0000 -0.0000 -0.0000
vn -0.0000 -0.0000 -1.0000
vn -0.0000 1.0000 -0.0000
vn -0.0000 -0.0000 1.0000
vn 0.2412 -0.9705 -0.0000
vn 0.9663 0.2576 -0.0000
vt 0.390534 0.000000
vt 0.625000 0.000000
vt 0.625000 0.250000
vt 0.390534 0.250000
vt 0.390534 0.500000
vt 0.390534 0.750000
vt 0.375000 0.250000
vt 0.625000 1.000000
vt 0.390534 1.000000
vt 0.125000 0.500000
vt 0.125000 0.750000
vt 0.375000 1.000000
vt 0.375000 0.000000
vt 0.875000 0.500000
vt 0.875000 0.750000
s 0
f 41/59/35 38/60/35 40/61/35 42/62/35
f 42/62/36 40/61/36 51/61/36 52/63/36 43/63/36
f 43/63/37 52/63/37 49/64/37 44/64/37
f 39/65/36 42/62/36 43/63/36 47/63/36 48/65/36
f 44/64/38 49/64/38 50/66/38 38/66/38 41/67/38
f 39/68/37 48/68/37 45/69/37 37/69/37
f 45/70/38 46/64/38 44/64/38 41/67/38 37/70/38
f 37/71/35 41/59/35 42/62/35 39/65/35
f 45/69/39 48/68/39 47/63/39 46/64/39
f 47/63/37 43/63/37 44/64/37 46/64/37
f 51/72/40 50/73/40 49/64/40 52/63/40
f 51/72/37 40/72/37 38/73/37 50/73/37
o Cube.002
v 3.000000 -2.000000 6.000000
v 3.000000 2.000000 6.000000
v 3.000000 -2.000000 4.000000
v 3.000000 2.000000 4.000000
v 3.000000 -1.751455 6.000000
v 3.000000 -1.751455 4.000000
v 4.000000 -1.751455 4.000000
v 4.000000 -1.751455 6.000000
v 3.000000 -2.000000 6.000000
v 4.000000 -1.751455 6.000000
v 4.000000 -1.751455 4.000000
v 3.000000 -2.000000 4.000000
v 4.000000 -1.751455 6.000000
v 3.000000 2.000000 6.000000
v 3.000000 2.000000 4.000000
v 4.000000 -1.751455 4.000000
vn -1.0000 -0.0000 -0.0000
vn -0.0000 -0.0000 -1.0000
vn -0.0000 1.0000 -0.0000
vn -0.0000 -0.0000 1.0000
vn 0.2412 -0.9705 -0.0000
vn 0.9663 0.2576 -0.0000
vt 0.390534 0.000000
vt 0.625000 0.000000
vt 0.625000 0.250000
vt 0.390534 0.250000
vt 0.390534 0.500000
vt 0.390534 0.750000
vt 0.375000 0.250000
vt 0.625000 1.000000
vt 0.390534 1.000000
vt 0.125000 0.500000
vt 0.125000 0.750000
vt 0.375000 1.000000
vt 0.375000 0.000000
vt 0.875000 0.500000
vt 0.875000 0.750000
s 0
f 57/74/41 54/75/41 56/76/41 58/77/41
f 58/77/42 56/76/42 67/76/42 68/78/42 59/78/42
f 59/78/43 68/78/43 65/79/43 60/79/43
f 55/80/42 58/77/42 59/78/42 63/78/42 64/80/42
f 60/79/44 65/79/44 66/81/44 54/81/44 57/82/44
f 55/83/43 64/83/43 61/84/43 53/84/43
f 61/85/44 62/79/44 60/79/44 57/82/44 53/85/44
f 53/86/41 57/74/41 58/77/41 55/80/41
f 61/84/45 64/83/45 63/78/45 62/79/45
f 63/78/43 59/78/43 60/79/43 62/79/43
f 67/87/46 66/88/46 65/79/46 68/78/46
f 67/87/43 56/87/43 54/88/43 66/88/43
o Cube.003
v 3.000000 -2.000000 -4.000000
v 3.000000 2.000000 -4.000000
v 3.000000 -2.000000 -6.000000
v 3.000000 2.000000 -6.000000
v 3.000000 -1.751455 -4.000000
v 3.000000 -1.751455 -6.000000
v 4.000000 -1.751455 -6.000000
v 4.000000 -1.751455 -4.000000
v 3.000000 -2.000000 -4.000000
v 4.000000 -1.751455 -4.000000
v 4.000000 -1.751455 -6.000000
v 3.000000 -2.000000 -6.000000
v 4.000000 -1.751455 -4.000000
v 3.000000 2.000000 -4.000000
v 3.000000 2.000000 -6.000000
v 4.000000 -1.751455 -6.000000
vn -1.0000 -0.0000 -0.0000
vn -0.0000 -0.0000 -1.0000
vn -0.0000 1.0000 -0.0000
vn -0.0000 -0.0000 1.0000
vn 0.2412 -0.9705 -0.0000
vn 0.9663 0.2576 -0.0000
vt 0.390534 0.000000
vt 0.625000 0.000000
vt 0.625000 0.250000
vt 0.390534 0.250000
vt 0.390534 0.500000
vt 0.390534 0.750000
vt 0.375000 0.250000
vt 0.625000 1.000000
vt 0.390534 1.000000
vt 0.125000 0.500000
vt 0.125000 0.750000
vt 0.375000 1.000000
vt 0.375000 0.000000
vt 0.875000 0.500000
vt 0.875000 0.750000
s 0
f 73/89/47 70/90/47 72/91/47 74/92/47
f 74/92/48 72/91/48 83/91/48 84/93/48 75/93/48
f 75/93/49 84/93/49 81/94/49 76/94/49
f 71/95/48 74/92/48 75/93/48 79/93/48 80/95/48
f 76/94/50 81/94/50 82/96/50 70/96/50 73/97/50
f 71/98/49 80/98/49 77/99/49 69/99/49
f 77/100/50 78/94/50 76/94/50 73/97/50 69/100/50
f 69/101/47 73/89/47 74/92/47 71/95/47
f 77/99/51 80/98/51 79/93/51 78/94/51
f 79/93/49 75/93/49 76/94/49 78/94/49
f 83/102/52 82/103/52 81/94/52 84/93/52
f 83/102/49 72/102/49 70/103/49 82/103/49
