# Blender 4.2.2 LTS
# www.blender.org
mtllib Ke2m.mtl
o Cube.004
v -0.250000 -2.000000 -1.999540
v -0.250000 2.000000 -1.999540
v -0.250000 -2.000000 -2.019540
v -0.250000 2.000000 -2.019540
v 0.250000 -2.000000 -1.999540
v 0.250000 2.000000 -1.999540
v 0.250000 -2.000000 -2.019540
v 0.250000 2.000000 -2.019540
v 0.250000 2.000000 -2.000000
v 0.250000 -2.000000 -2.000000
v 0.250000 2.000000 2.000000
v 0.250000 -2.000000 2.000000
v -0.250000 2.000000 -2.000000
v -0.250000 -2.000000 -2.000000
v -0.250000 2.000000 2.000000
v -0.250000 -2.000000 2.000000
v -0.250000 1.276640 1.878135
v -0.250000 1.876640 1.878135
v -0.250000 1.876640 0.038135
v -0.250000 1.276640 0.038135
v 0.250000 1.276640 0.038135
v 0.250000 1.876640 0.038135
v 0.250000 1.276640 1.878135
v 0.250000 1.876640 1.878135
v -0.250000 1.877049 -0.036351
v -0.250000 1.277049 -1.876351
v -0.250000 1.277049 -0.036351
v -0.250000 1.877049 -1.876351
v 0.250000 1.277049 -1.876351
v 0.250000 1.877049 -0.036351
v 0.250000 1.277049 -0.036351
v 0.250000 1.877049 -1.876351
v -0.250000 0.547870 1.878135
v -0.250000 1.147870 1.878135
v -0.250000 1.147870 0.038135
v -0.250000 0.547870 0.038135
v 0.250000 0.547870 1.878135
v 0.250000 1.147870 1.878135
v 0.250000 0.547870 0.038135
v 0.250000 1.147870 0.038135
v -0.250000 1.148278 -0.036351
v -0.250000 1.148278 -1.876351
v -0.250000 0.548278 -1.876351
v -0.250000 0.548278 -0.036351
v 0.250000 0.548278 -1.876351
v 0.250000 1.148278 -1.876351
v 0.250000 0.548278 -0.036351
v 0.250000 1.148278 -0.036351
v -0.250000 -0.181655 1.878135
v -0.250000 0.418345 1.878135
v -0.250000 0.418345 0.038135
v -0.250000 -0.181655 0.038135
v 0.250000 -0.181655 1.878135
v 0.250000 0.418345 1.878135
v 0.250000 -0.181655 0.038135
v 0.250000 0.418345 0.038135
v -0.250000 0.418754 -0.036351
v -0.250000 -0.181246 -0.036351
v -0.250000 0.418754 -1.876351
v -0.250000 -0.181246 -1.876351
v 0.250000 0.418754 -0.036351
v 0.250000 -0.181246 -0.036351
v 0.250000 0.418754 -1.876351
v 0.250000 -0.181246 -1.876351
v -0.250000 -0.909564 1.878135
v -0.250000 -0.309564 1.878135
v -0.250000 -0.309564 0.038135
v -0.250000 -0.909564 0.038135
v 0.250000 -0.909564 1.878135
v 0.250000 -0.309564 1.878135
v 0.250000 -0.909564 0.038135
v 0.250000 -0.309564 0.038135
v -0.250000 -0.309155 -0.036351
v -0.250000 -0.909155 -0.036351
v -0.250000 -0.309155 -1.876351
v -0.250000 -0.909155 -1.876351
v 0.250000 -0.909155 -0.036351
v 0.250000 -0.309155 -0.036351
v 0.250000 -0.309155 -1.876351
v 0.250000 -0.909155 -1.876351
v -0.250000 -1.645626 1.878135
v -0.250000 -1.045626 1.878135
v -0.250000 -1.045626 0.038135
v -0.250000 -1.645626 0.038135
v 0.250000 -1.645626 1.878135
v 0.250000 -1.045626 1.878135
v 0.250000 -1.645626 0.038135
v 0.250000 -1.045626 0.038135
v -0.250000 -1.045218 -0.036351
v -0.250000 -1.645217 -0.036351
v -0.250000 -1.045218 -1.876351
v -0.250000 -1.645217 -1.876351
v 0.250000 -1.645217 -0.036351
v 0.250000 -1.045218 -0.036351
v 0.250000 -1.045218 -1.876351
v 0.250000 -1.645217 -1.876351
v -0.250000 -1.786205 1.878135
v -0.250000 -2.000000 1.878135
v -0.250000 -1.786205 0.038135
v -0.250000 -2.000000 0.038135
v 0.250000 -2.000000 1.878135
v 0.250000 -2.000000 0.038135
v 0.250000 -1.786205 1.878135
v 0.250000 -1.786205 0.038135
v -0.250000 -2.000000 -0.036351
v -0.250000 -2.000000 -1.876351
v -0.250000 -1.785796 -0.036351
v -0.250000 -1.785796 -1.876351
v 0.250000 -2.000000 -0.036351
v 0.250000 -2.000000 -1.876351
v 0.250000 -1.785796 -0.036351
v 0.250000 -1.785796 -1.876351
v -0.250000 -2.000000 2.019540
v -0.250000 2.000000 2.019540
v -0.250000 -2.000000 1.999540
v -0.250000 2.000000 1.999540
v 0.250000 -2.000000 2.019540
v 0.250000 2.000000 2.019540
v 0.250000 -2.000000 1.999540
v 0.250000 2.000000 1.999540
vn -1.0000 -0.0000 -0.0000
vn -0.0000 -0.0000 -1.0000
vn 1.0000 -0.0000 -0.0000
vn -0.0000 -0.0000 1.0000
vn -0.0000 -1.0000 -0.0000
vn -0.0000 1.0000 -0.0000
vt 0.375000 0.000000
vt 0.625000 0.000000
vt 0.625000 0.250000
vt 0.375000 0.250000
vt 0.625000 0.500000
vt 0.375000 0.500000
vt 0.625000 0.750000
vt 0.375000 0.750000
vt 0.625000 1.000000
vt 0.375000 1.000000
vt 0.125000 0.500000
vt 0.125000 0.750000
vt 0.875000 0.500000
vt 0.875000 0.750000
vt 0.375000 0.127272
vt 0.375000 0.122617
vt 0.388362 0.122617
vt 0.388362 0.007617
vt 0.375000 0.007617
vt 0.617290 0.007617
vt 0.579790 0.007617
vt 0.571742 0.007617
vt 0.534242 0.007617
vt 0.526147 0.007617
vt 0.488647 0.007617
vt 0.480652 0.007617
vt 0.443152 0.007617
vt 0.434648 0.007617
vt 0.397148 0.007617
vt 0.397148 0.122617
vt 0.397174 0.127272
vt 0.397174 0.242272
vt 0.434674 0.242272
vt 0.434674 0.127272
vt 0.434648 0.122617
vt 0.443152 0.122617
vt 0.443178 0.127272
vt 0.443178 0.242272
vt 0.480678 0.242272
vt 0.480678 0.127272
vt 0.480652 0.122617
vt 0.488647 0.122617
vt 0.488672 0.127272
vt 0.488672 0.242272
vt 0.526172 0.242272
vt 0.526172 0.127272
vt 0.526147 0.122617
vt 0.534242 0.122617
vt 0.534267 0.127272
vt 0.534267 0.242272
vt 0.571767 0.242272
vt 0.571767 0.127272
vt 0.571742 0.122617
vt 0.579790 0.122617
vt 0.579816 0.127272
vt 0.579816 0.242272
vt 0.617316 0.242272
vt 0.617316 0.127272
vt 0.617290 0.122617
vt 0.375000 0.242272
vt 0.388388 0.242272
vt 0.388388 0.127272
vt 0.125000 0.742383
vt 0.375000 0.742383
vt 0.375000 0.627383
vt 0.125000 0.627383
vt 0.125000 0.622728
vt 0.375000 0.622728
vt 0.375000 0.507728
vt 0.125000 0.507728
vt 0.617290 0.627383
vt 0.617290 0.742383
vt 0.617316 0.622728
vt 0.617316 0.507728
vt 0.579816 0.507728
vt 0.579816 0.622728
vt 0.579790 0.627383
vt 0.571742 0.627383
vt 0.571767 0.622728
vt 0.571767 0.507728
vt 0.534267 0.507728
vt 0.534267 0.622728
vt 0.534242 0.627383
vt 0.526147 0.627383
vt 0.526172 0.622728
vt 0.526172 0.507728
vt 0.488672 0.507728
vt 0.488672 0.622728
vt 0.488647 0.627384
vt 0.480652 0.627383
vt 0.480678 0.622728
vt 0.480678 0.507728
vt 0.443178 0.507728
vt 0.443178 0.622728
vt 0.443152 0.627384
vt 0.434648 0.627383
vt 0.434674 0.622728
vt 0.434674 0.507728
vt 0.397174 0.507728
vt 0.397174 0.622728
vt 0.397148 0.627383
vt 0.397148 0.742383
vt 0.434648 0.742383
vt 0.443152 0.742383
vt 0.480652 0.742383
vt 0.488647 0.742383
vt 0.526146 0.742383
vt 0.534242 0.742383
vt 0.571742 0.742383
vt 0.579790 0.742383
vt 0.388362 0.742384
vt 0.388362 0.627383
vt 0.388388 0.622728
vt 0.388388 0.507728
vt 0.625000 0.313578
vt 0.375000 0.313578
vt 0.375000 0.438578
vt 0.625000 0.438578
vt 0.375000 0.811422
vt 0.375000 0.936422
vt 0.625000 0.936422
vt 0.625000 0.811422
vt 0.188578 0.500000
vt 0.188578 0.750000
vt 0.313578 0.750000
vt 0.313578 0.500000
vt 0.811422 0.750000
vt 0.811422 0.500000
vt 0.686422 0.500000
vt 0.686422 0.750000
vt 0.625000 0.437264
vt 0.625000 0.312264
vt 0.375000 0.312264
vt 0.375000 0.437264
vt 0.625000 0.937736
vt 0.625000 0.812736
vt 0.375000 0.812736
vt 0.375000 0.937736
vt 0.187264 0.500000
vt 0.187264 0.750000
vt 0.312264 0.750000
vt 0.312264 0.500000
vt 0.812736 0.500000
vt 0.687736 0.500000
vt 0.687736 0.750000
vt 0.812736 0.750000
vt 0.535919 0.438578
vt 0.535919 0.313578
vt 0.535919 0.811422
vt 0.535919 0.936422
vt 0.535748 0.437264
vt 0.535748 0.312264
vt 0.535748 0.937736
vt 0.535748 0.812736
s 0
usemtl Material.002
f 1/1/1 2/2/1 4/3/1 3/4/1
f 3/4/2 4/3/2 8/5/2 7/6/2
f 7/6/3 8/5/3 6/7/3 5/8/3
f 5/8/4 6/7/4 2/9/4 1/10/4
f 3/11/5 7/6/5 5/8/5 1/12/5
f 8/5/6 4/13/6 2/14/6 6/7/6
usemtl Material
f 9/5/6 13/13/6 15/14/6 11/7/6
f 12/8/4 11/7/4 15/9/4 16/10/4
f 105/15/1 100/16/1 99/17/1 97/18/1 98/19/1 16/1/1 15/2/1 18/20/1 17/21/1 34/22/1 33/23/1 50/24/1 49/25/1 66/26/1 65/27/1 82/28/1 81/29/1 84/30/1 90/31/1 92/32/1 91/33/1 89/34/1 83/35/1 68/36/1 74/37/1 76/38/1 75/39/1 73/40/1 67/41/1 52/42/1 58/43/1 60/44/1 59/45/1 57/46/1 51/47/1 36/48/1 44/49/1 43/50/1 42/51/1 41/52/1 35/53/1 20/54/1 27/55/1 26/56/1 28/57/1 25/58/1 19/59/1 13/3/1 14/4/1 106/60/1 108/61/1 107/62/1
f 84/30/1 83/35/1 89/34/1 90/31/1
f 82/28/1 65/27/1 68/36/1 83/35/1
f 68/36/1 67/41/1 73/40/1 74/37/1
f 66/26/1 49/25/1 52/42/1 67/41/1
f 52/42/1 51/47/1 57/46/1 58/43/1
f 50/24/1 33/23/1 36/48/1 51/47/1
f 44/49/1 36/48/1 35/53/1 41/52/1
f 34/22/1 17/21/1 20/54/1 35/53/1
f 27/55/1 20/54/1 19/59/1 25/58/1
f 15/2/1 13/3/1 19/59/1 18/20/1
f 12/8/5 16/12/5 98/63/5 101/64/5
f 102/65/5 100/66/5 105/67/5 109/68/5
f 14/11/5 10/6/5 110/69/5 106/70/5
f 22/71/3 9/5/3 11/7/3 24/72/3
f 10/6/3 9/5/3 22/71/3 30/73/3 32/74/3 29/75/3 31/76/3 21/77/3 40/78/3 48/79/3 46/80/3 45/81/3 47/82/3 39/83/3 56/84/3 61/85/3 63/86/3 64/87/3 62/88/3 55/89/3 72/90/3 78/91/3 79/92/3 80/93/3 77/94/3 71/95/3 88/96/3 94/97/3 95/98/3 96/99/3 93/100/3 87/101/3 85/102/3 86/103/3 69/104/3 70/105/3 53/106/3 54/107/3 37/108/3 38/109/3 23/110/3 24/72/3 11/7/3 12/8/3 101/64/3 103/111/3 104/112/3 102/65/3 109/68/3 111/113/3 112/114/3 110/69/3
f 88/96/3 87/101/3 93/100/3 94/97/3
f 88/96/3 71/95/3 69/104/3 86/103/3
f 72/90/3 71/95/3 77/94/3 78/91/3
f 72/90/3 55/89/3 53/106/3 70/105/3
f 56/84/3 55/89/3 62/88/3 61/85/3
f 56/84/3 39/83/3 37/108/3 54/107/3
f 40/78/3 39/83/3 47/82/3 48/79/3
f 40/78/3 21/77/3 23/110/3 38/109/3
f 22/71/3 21/77/3 31/76/3 30/73/3
f 14/4/2 13/3/2 9/5/2 10/6/2
f 19/115/4 20/116/4 21/117/4 22/118/4
f 23/119/2 17/120/2 18/121/2 24/122/2
f 20/123/6 17/124/6 23/125/6 21/126/6
f 18/127/5 19/128/5 22/129/5 24/130/5
f 32/131/4 28/132/4 26/133/4 29/134/4
f 25/135/2 30/136/2 31/137/2 27/138/2
f 26/139/6 27/140/6 31/141/6 29/142/6
f 28/143/5 32/144/5 30/145/5 25/146/5
f 35/115/4 36/116/4 39/117/4 40/118/4
f 37/119/2 33/120/2 34/121/2 38/122/2
f 39/126/6 36/123/6 33/124/6 37/125/6
f 35/128/5 40/129/5 38/130/5 34/127/5
f 42/132/4 43/133/4 45/134/4 46/131/4
f 41/135/2 48/136/2 47/137/2 44/138/2
f 43/139/6 44/140/6 47/141/6 45/142/6
f 42/143/5 46/144/5 48/145/5 41/146/5
f 51/115/4 52/116/4 55/117/4 56/118/4
f 53/119/2 49/120/2 50/121/2 54/122/2
f 52/123/6 49/124/6 53/125/6 55/126/6
f 51/128/5 56/129/5 54/130/5 50/127/5
f 59/132/4 60/133/4 64/134/4 63/131/4
f 57/135/2 61/136/2 62/137/2 58/138/2
f 60/139/6 58/140/6 62/141/6 64/142/6
f 59/143/5 63/144/5 61/145/5 57/146/5
f 67/115/4 68/116/4 71/117/4 72/118/4
f 69/119/2 65/120/2 66/121/2 70/122/2
f 68/123/6 65/124/6 69/125/6 71/126/6
f 67/128/5 72/129/5 70/130/5 66/127/5
f 75/132/4 76/133/4 80/134/4 79/131/4
f 73/135/2 78/136/2 77/137/2 74/138/2
f 76/139/6 74/140/6 77/141/6 80/142/6
f 75/143/5 79/144/5 78/145/5 73/146/5
f 83/115/4 84/116/4 87/117/4 88/118/4
f 85/119/2 81/120/2 82/121/2 86/122/2
f 84/123/6 81/124/6 85/125/6 87/126/6
f 83/128/5 88/129/5 86/130/5 82/127/5
f 91/132/4 92/133/4 96/134/4 95/131/4
f 89/135/2 94/136/2 93/137/2 90/138/2
f 92/139/6 90/140/6 93/141/6 96/142/6
f 89/146/5 91/143/5 95/144/5 94/145/5
f 102/147/4 104/118/4 99/115/4 100/148/4
f 101/149/2 98/150/2 97/121/2 103/122/2
f 103/130/5 97/127/5 99/128/5 104/129/5
f 110/151/4 112/131/4 108/132/4 106/152/4
f 105/153/2 107/135/2 111/136/2 109/154/2
f 108/143/5 112/144/5 111/145/5 107/146/5
usemtl Material.001
f 113/1/1 114/2/1 116/3/1 115/4/1
f 115/4/2 116/3/2 120/5/2 119/6/2
f 119/6/3 120/5/3 118/7/3 117/8/3
f 117/8/4 118/7/4 114/9/4 113/10/4
f 115/11/5 119/6/5 117/8/5 113/12/5
f 120/5/6 116/13/6 114/14/6 118/7/6
