# Blender 4.2.2 LTS
# www.blender.org
mtllib Ke4mNew.mtl
o Cube.011
v -0.500000 0.000000 4.000000
v -0.500000 4.000000 4.000000
v -0.500000 0.000000 -4.000000
v -0.500000 4.000000 -4.000000
v 0.500000 0.000000 4.000000
v 0.500000 4.000000 4.000000
v 0.500000 0.000000 -4.000000
v 0.500000 4.000000 -4.000000
v -0.500000 3.276131 3.881050
v -0.500000 3.876131 3.881050
v -0.500000 3.876131 2.001050
v -0.500000 3.276131 2.001050
v 0.500000 3.276131 2.001050
v 0.500000 3.876131 2.001050
v 0.500000 3.276131 3.881050
v 0.500000 3.876131 3.881050
v -0.500000 3.876131 0.037912
v -0.500000 3.876131 1.917912
v -0.500000 3.276131 1.917912
v -0.500000 3.276131 0.037912
v 0.500000 3.876131 1.917912
v 0.500000 3.876131 0.037912
v 0.500000 3.276131 1.917912
v 0.500000 3.276131 0.037912
v -0.500000 3.876131 -1.922703
v -0.500000 3.876131 -0.042703
v -0.500000 3.276131 -0.042703
v -0.500000 3.276131 -1.922703
v 0.500000 3.876131 -0.042703
v 0.500000 3.876131 -1.922703
v 0.500000 3.276131 -0.042703
v 0.500000 3.276131 -1.922703
v -0.500000 3.276131 -3.883266
v -0.500000 3.876131 -3.883266
v -0.500000 3.876131 -2.003266
v -0.500000 3.276131 -2.003266
v 0.500000 3.876131 -3.883266
v 0.500000 3.276131 -3.883266
v 0.500000 3.876131 -2.003266
v 0.500000 3.276131 -2.003266
v -0.500000 2.548145 3.881050
v -0.500000 3.148145 3.881050
v -0.500000 3.148145 2.001050
v -0.500000 2.548145 2.001050
v 0.500000 2.548145 3.881050
v 0.500000 3.148145 3.881050
v 0.500000 2.548145 2.001050
v 0.500000 3.148145 2.001050
v -0.500000 2.548145 1.917912
v -0.500000 3.148145 1.917912
v -0.500000 2.548145 0.037912
v -0.500000 3.148145 0.037912
v 0.500000 2.548145 1.917912
v 0.500000 3.148145 1.917912
v 0.500000 3.148145 0.037912
v 0.500000 2.548145 0.037912
v -0.500000 3.148145 -0.042703
v -0.500000 3.148145 -1.922703
v -0.500000 2.548145 -0.042703
v -0.500000 2.548145 -1.922703
v 0.500000 2.548145 -0.042703
v 0.500000 3.148145 -0.042703
v 0.500000 3.148145 -1.922703
v 0.500000 2.548145 -1.922703
v -0.500000 3.148145 -2.003266
v -0.500000 2.548145 -2.003266
v -0.500000 3.148145 -3.883266
v -0.500000 2.548145 -3.883266
v 0.500000 3.148145 -3.883266
v 0.500000 2.548145 -3.883266
v 0.500000 2.548145 -2.003266
v 0.500000 3.148145 -2.003266
v -0.500000 1.825335 3.881050
v -0.500000 2.425335 3.881050
v -0.500000 1.825335 2.001050
v -0.500000 2.425335 2.001050
v 0.500000 1.825335 3.881050
v 0.500000 2.425335 3.881050
v 0.500000 1.825335 2.001050
v 0.500000 2.425335 2.001050
v -0.500000 1.825335 1.917912
v -0.500000 2.425335 1.917912
v -0.500000 2.425335 0.037912
v -0.500000 1.825335 0.037912
v 0.500000 1.825335 1.917912
v 0.500000 2.425335 1.917912
v 0.500000 2.425335 0.037912
v 0.500000 1.825335 0.037912
v -0.500000 2.425335 -0.042703
v -0.500000 2.425335 -1.922703
v -0.500000 1.825335 -0.042703
v -0.500000 1.825335 -1.922703
v 0.500000 1.825335 -0.042703
v 0.500000 2.425335 -0.042703
v 0.500000 2.425335 -1.922703
v 0.500000 1.825335 -1.922703
v -0.500000 2.425335 -3.883266
v -0.500000 1.825335 -3.883266
v -0.500000 1.825335 -2.003266
v -0.500000 2.425335 -2.003266
v 0.500000 1.825335 -2.003266
v 0.500000 2.425335 -2.003266
v 0.500000 2.425335 -3.883266
v 0.500000 1.825335 -3.883266
v -0.500000 1.094497 3.881050
v -0.500000 1.694497 3.881050
v -0.500000 1.094497 2.001050
v -0.500000 1.694497 2.001050
v 0.500000 1.094497 3.881050
v 0.500000 1.694497 3.881050
v 0.500000 1.094497 2.001050
v 0.500000 1.694497 2.001050
v -0.500000 1.694497 -3.883266
v -0.500000 1.094497 -3.883266
v -0.500000 1.694497 -2.071600
v -0.500000 1.094497 -2.003266
v -0.500000 1.694497 -2.003266
v 0.500000 1.094497 -2.003266
v 0.500000 1.694497 -2.071600
v 0.500000 1.694497 -2.003266
v 0.500000 1.694497 -3.883266
v 0.500000 1.094497 -3.883266
v -0.500000 1.094497 -0.042703
v -0.500000 1.694497 -0.042703
v -0.500000 1.094497 -1.922703
v -0.500000 1.694497 -1.922703
v 0.500000 1.694497 -1.922703
v 0.500000 1.694497 -0.042703
v 0.500000 1.094497 -0.042703
v 0.500000 1.094497 -1.922703
v -0.500000 1.694497 1.917912
v -0.500000 1.694497 0.037912
v -0.500000 1.094497 1.917912
v -0.500000 1.094497 0.037912
v 0.500000 1.694497 1.917912
v 0.500000 1.694497 0.037912
v 0.500000 1.094497 1.917912
v 0.500000 1.094497 0.037912
v -0.500000 0.356248 3.881050
v -0.500000 0.956248 3.881050
v -0.500000 0.356248 2.001050
v -0.500000 0.956248 2.001050
v 0.500000 0.356248 3.881050
v 0.500000 0.956248 3.881050
v 0.500000 0.356248 2.001050
v 0.500000 0.956248 2.001050
v -0.500000 0.356248 1.917912
v -0.500000 0.356248 0.037912
v -0.500000 0.956248 1.917912
v -0.500000 0.956248 0.037912
v 0.500000 0.956248 1.917912
v 0.500000 0.956248 0.037912
v 0.500000 0.356248 1.917912
v 0.500000 0.356248 0.037912
v -0.500000 0.356248 -0.042703
v -0.500000 0.356248 -1.922703
v -0.500000 0.956248 -0.042703
v -0.500000 0.956248 -1.922703
v 0.500000 0.356248 -0.042703
v 0.500000 0.356248 -1.922703
v 0.500000 0.956248 -0.042703
v 0.500000 0.956248 -1.922703
v -0.500000 0.956248 -3.883266
v -0.500000 0.356248 -3.883266
v -0.500000 0.356248 -2.003266
v -0.500000 0.956248 -2.003266
v 0.500000 0.356248 -2.003266
v 0.500000 0.956248 -2.003266
v 0.500000 0.956248 -3.883266
v 0.500000 0.356248 -3.883266
v -0.500000 0.000000 3.881050
v -0.500000 0.223014 3.881050
v -0.500000 0.223014 2.001050
v -0.500000 0.000000 2.001050
v 0.500000 0.223014 3.881050
v 0.500000 0.000000 3.881050
v 0.500000 0.223014 2.001050
v 0.500000 0.000000 2.001050
v -0.500000 0.000000 1.917912
v -0.500000 0.000000 0.037912
v -0.500000 0.223014 1.917912
v -0.500000 0.223014 0.037912
v 0.500000 0.000000 1.917912
v 0.500000 0.000000 0.037912
v 0.500000 0.223014 1.917912
v 0.500000 0.223014 0.037912
v -0.500000 0.000000 -0.042703
v -0.500000 0.000000 -1.922703
v -0.500000 0.223014 -0.042703
v -0.500000 0.223014 -1.922703
v 0.500000 0.000000 -0.042703
v 0.500000 0.000000 -1.922703
v 0.500000 0.223014 -0.042703
v 0.500000 0.223014 -1.922703
v -0.500000 0.000000 -2.003266
v -0.500000 0.000000 -3.883266
v -0.500000 0.223014 -2.003266
v -0.500000 0.223014 -3.883266
v 0.500000 0.000000 -3.883266
v 0.500000 0.000000 -2.003266
v 0.500000 0.223014 -2.003266
v 0.500000 0.223014 -3.883266
vn -1.0000 -0.0000 -0.0000
vn -0.0000 -0.0000 -1.0000
vn 1.0000 -0.0000 -0.0000
vn -0.0000 -0.0000 1.0000
vn -0.0000 -1.0000 -0.0000
vn -0.0000 1.0000 -0.0000
vt 0.534259 0.062467
vt 0.571759 0.062467
vt 0.571759 0.065065
vt 0.534259 0.065065
vt 0.489083 0.065065
vt 0.489083 0.062467
vt 0.526584 0.062467
vt 0.526584 0.065065
vt 0.489084 0.185084
vt 0.526583 0.185084
vt 0.526583 0.187602
vt 0.489084 0.187602
vt 0.375000 0.187602
vt 0.375000 0.185084
vt 0.388938 0.185084
vt 0.388938 0.126334
vt 0.375000 0.126334
vt 0.375000 0.123815
vt 0.388938 0.123815
vt 0.388938 0.065065
vt 0.375000 0.065065
vt 0.375000 0.062467
vt 0.388938 0.062467
vt 0.388938 0.003717
vt 0.375000 0.003717
vt 0.375000 0.000000
vt 0.625000 0.000000
vt 0.617258 0.003717
vt 0.579758 0.003717
vt 0.571759 0.003717
vt 0.534259 0.003717
vt 0.526583 0.003717
vt 0.489083 0.003717
vt 0.480906 0.003717
vt 0.443406 0.003717
vt 0.434765 0.003717
vt 0.397265 0.003717
vt 0.397266 0.062467
vt 0.397266 0.065065
vt 0.397265 0.123815
vt 0.397265 0.126334
vt 0.397266 0.185084
vt 0.397265 0.187602
vt 0.397266 0.246352
vt 0.434766 0.246352
vt 0.434766 0.187602
vt 0.434766 0.185084
vt 0.434765 0.126334
vt 0.434765 0.123815
vt 0.434766 0.065065
vt 0.434766 0.062467
vt 0.443406 0.062467
vt 0.480906 0.062467
vt 0.489084 0.123815
vt 0.489084 0.126334
vt 0.480906 0.185084
vt 0.480906 0.126334
vt 0.480906 0.123815
vt 0.480906 0.065065
vt 0.443406 0.065065
vt 0.443406 0.123815
vt 0.443406 0.126334
vt 0.443406 0.185084
vt 0.443406 0.187602
vt 0.443406 0.246352
vt 0.480906 0.246352
vt 0.489083 0.246352
vt 0.526583 0.246352
vt 0.526584 0.126334
vt 0.526583 0.123815
vt 0.534259 0.123815
vt 0.534259 0.126334
vt 0.534259 0.185084
vt 0.534259 0.187602
vt 0.534259 0.246352
vt 0.571759 0.246352
vt 0.571759 0.187602
vt 0.571759 0.185084
vt 0.571759 0.126334
vt 0.571759 0.123815
vt 0.579758 0.062467
vt 0.579758 0.065065
vt 0.579758 0.123815
vt 0.579758 0.126334
vt 0.579758 0.185084
vt 0.579758 0.187602
vt 0.579758 0.246352
vt 0.617258 0.246352
vt 0.617258 0.187602
vt 0.617258 0.185084
vt 0.617258 0.126334
vt 0.617258 0.123815
vt 0.617258 0.065065
vt 0.617258 0.062467
vt 0.625000 0.250000
vt 0.375000 0.250000
vt 0.375000 0.246352
vt 0.388938 0.246352
vt 0.388938 0.187602
vt 0.480906 0.189737
vt 0.480906 0.187602
vt 0.625000 0.500000
vt 0.375000 0.500000
vt 0.617258 0.687533
vt 0.625000 0.750000
vt 0.617258 0.746283
vt 0.480906 0.562398
vt 0.480906 0.560263
vt 0.489083 0.562398
vt 0.489083 0.564916
vt 0.489083 0.623666
vt 0.489083 0.626185
vt 0.489083 0.684935
vt 0.489083 0.687533
vt 0.480906 0.687533
vt 0.443406 0.687533
vt 0.434766 0.687533
vt 0.397266 0.687533
vt 0.397265 0.684935
vt 0.434766 0.684935
vt 0.443406 0.684935
vt 0.480906 0.684935
vt 0.480906 0.626185
vt 0.480906 0.623666
vt 0.480906 0.564916
vt 0.617258 0.684935
vt 0.617258 0.626185
vt 0.617258 0.623665
vt 0.617258 0.564915
vt 0.617258 0.562398
vt 0.617258 0.503648
vt 0.579758 0.503648
vt 0.579758 0.562398
vt 0.579758 0.564916
vt 0.579758 0.623666
vt 0.579758 0.626185
vt 0.579758 0.684935
vt 0.579758 0.687533
vt 0.571759 0.687533
vt 0.571759 0.684935
vt 0.571759 0.626185
vt 0.571759 0.623665
vt 0.571759 0.564916
vt 0.571759 0.562398
vt 0.571759 0.503648
vt 0.534259 0.503648
vt 0.534259 0.562398
vt 0.534259 0.564916
vt 0.534259 0.623666
vt 0.534259 0.626185
vt 0.534259 0.684935
vt 0.534259 0.687533
vt 0.526583 0.687533
vt 0.526583 0.684935
vt 0.526583 0.626185
vt 0.526583 0.623666
vt 0.526583 0.564916
vt 0.526583 0.562398
vt 0.526583 0.503648
vt 0.489083 0.503648
vt 0.480906 0.503648
vt 0.443406 0.503648
vt 0.443406 0.562398
vt 0.443406 0.564915
vt 0.443406 0.623665
vt 0.443406 0.626185
vt 0.434766 0.626185
vt 0.434766 0.623666
vt 0.434765 0.564916
vt 0.434765 0.562398
vt 0.434765 0.503648
vt 0.397266 0.503648
vt 0.397266 0.562398
vt 0.397266 0.564915
vt 0.397266 0.623665
vt 0.397266 0.626185
vt 0.397266 0.746283
vt 0.434765 0.746283
vt 0.443406 0.746283
vt 0.480906 0.746283
vt 0.489083 0.746283
vt 0.526583 0.746283
vt 0.534259 0.746283
vt 0.571759 0.746283
vt 0.579758 0.746283
vt 0.375000 0.750000
vt 0.375000 0.746283
vt 0.388938 0.746283
vt 0.388938 0.687533
vt 0.375000 0.687533
vt 0.375000 0.684935
vt 0.388938 0.684935
vt 0.388938 0.626185
vt 0.375000 0.626185
vt 0.375000 0.623666
vt 0.388938 0.623665
vt 0.388938 0.564916
vt 0.375000 0.564916
vt 0.375000 0.562398
vt 0.388938 0.562398
vt 0.388939 0.503648
vt 0.375000 0.503648
vt 0.625000 1.000000
vt 0.375000 1.000000
vt 0.125000 0.750000
vt 0.125000 0.746283
vt 0.125000 0.687533
vt 0.125000 0.684935
vt 0.125000 0.626185
vt 0.125000 0.623666
vt 0.125000 0.564916
vt 0.125000 0.562398
vt 0.125000 0.500000
vt 0.125000 0.503648
vt 0.875000 0.500000
vt 0.875000 0.750000
vt 0.625000 0.312500
vt 0.375000 0.312500
vt 0.375000 0.437500
vt 0.625000 0.437500
vt 0.375000 0.812500
vt 0.375000 0.937500
vt 0.625000 0.937500
vt 0.625000 0.812500
vt 0.187500 0.500000
vt 0.187500 0.750000
vt 0.312500 0.750000
vt 0.312500 0.500000
vt 0.812500 0.750000
vt 0.812500 0.500000
vt 0.687500 0.500000
vt 0.687500 0.750000
vt 0.625000 0.325000
vt 0.375000 0.325000
vt 0.375000 0.425000
vt 0.625000 0.425000
vt 0.375000 0.825000
vt 0.375000 0.925000
vt 0.625000 0.925000
vt 0.625000 0.825000
vt 0.200000 0.500000
vt 0.200000 0.750000
vt 0.300000 0.750000
vt 0.300000 0.500000
vt 0.800000 0.500000
vt 0.700000 0.500000
vt 0.700000 0.750000
vt 0.800000 0.750000
vt 0.700000 0.740913
vt 0.800000 0.740913
vt 0.532077 0.437500
vt 0.532077 0.312500
vt 0.532077 0.937500
vt 0.532077 0.812500
s 0
usemtl Material.002
f 44/1/1 43/2/1 50/3/1 49/4/1
f 81/5/1 75/6/1 76/7/1 82/8/1
f 92/9/1 90/10/1 100/11/1 99/12/1
f 195/13/1 188/14/1 190/15/1 189/16/1 187/17/1 180/18/1 182/19/1 181/20/1 179/21/1 174/22/1 173/23/1 172/24/1 171/25/1 1/26/1 2/27/1 10/28/1 9/29/1 42/30/1 41/31/1 74/32/1 73/33/1 106/34/1 105/35/1 140/36/1 139/37/1 141/38/1 147/39/1 148/40/1 155/41/1 156/42/1 165/43/1 164/44/1 163/45/1 166/46/1 158/47/1 157/48/1 150/49/1 149/50/1 142/51/1 107/52/1 108/53/1 75/6/1 81/5/1 84/54/1 91/55/1 92/9/1 126/56/1 124/57/1 132/58/1 131/59/1 133/60/1 134/61/1 123/62/1 125/63/1 116/64/1 114/65/1 113/66/1 98/67/1 97/68/1 100/11/1 90/10/1 89/69/1 83/70/1 82/8/1 76/7/1 44/1/1 49/4/1 51/71/1 59/72/1 60/73/1 66/74/1 68/75/1 67/76/1 65/77/1 58/78/1 57/79/1 52/80/1 50/3/1 43/2/1 12/81/1 19/82/1 20/83/1 27/84/1 28/85/1 36/86/1 33/87/1 34/88/1 35/89/1 25/90/1 26/91/1 17/92/1 18/93/1 11/94/1 4/95/1 3/96/1 196/97/1 198/98/1 197/99/1
f 156/42/1 158/47/1 166/46/1 165/43/1
f 155/41/1 148/40/1 150/49/1 157/48/1
f 147/39/1 141/38/1 142/51/1 149/50/1
f 105/35/1 107/52/1 142/51/1 140/36/1
f 132/58/1 124/57/1 123/62/1 134/61/1
f 126/56/1 92/9/1 99/12/1 115/100/1 117/101/1 116/64/1 125/63/1
f 99/12/1 98/67/1 113/66/1 115/100/1
f 73/33/1 75/6/1 108/53/1 106/34/1
f 84/54/1 83/70/1 89/69/1 91/55/1
f 41/31/1 44/1/1 76/7/1 74/32/1
f 60/73/1 58/78/1 65/77/1 66/74/1
f 51/71/1 52/80/1 57/79/1 59/72/1
f 42/30/1 9/29/1 12/81/1 43/2/1
f 36/86/1 28/85/1 25/90/1 35/89/1
f 27/84/1 20/83/1 17/92/1 26/91/1
f 19/82/1 12/81/1 11/94/1 18/93/1
f 2/27/1 4/95/1 11/94/1 10/28/1
f 3/96/2 4/95/2 8/102/2 7/103/2
f 14/104/3 8/102/3 6/105/3 16/106/3
f 120/107/3 119/108/3 101/109/3 96/110/3 93/111/3 88/112/3 85/113/3 79/114/3 112/115/3 111/116/3 146/117/3 145/118/3 153/119/3 151/120/3 137/121/3 135/122/3 136/123/3 128/124/3 127/125/3
f 7/103/3 8/102/3 14/104/3 21/126/3 22/127/3 29/128/3 30/129/3 39/130/3 37/131/3 38/132/3 40/133/3 32/134/3 31/135/3 24/136/3 23/137/3 13/138/3 48/139/3 54/140/3 55/141/3 62/142/3 63/143/3 72/144/3 69/145/3 70/146/3 71/147/3 64/148/3 61/149/3 56/150/3 53/151/3 47/152/3 80/153/3 86/154/3 87/155/3 94/156/3 95/157/3 102/158/3 103/159/3 104/160/3 121/161/3 122/162/3 118/163/3 130/164/3 129/165/3 138/166/3 137/121/3 151/120/3 152/167/3 161/168/3 162/169/3 168/170/3 169/171/3 170/172/3 167/173/3 160/174/3 159/175/3 154/176/3 153/119/3 145/118/3 143/177/3 144/178/3 109/179/3 110/180/3 77/181/3 78/182/3 45/183/3 46/184/3 15/185/3 16/106/3 6/105/3 5/186/3 176/187/3 175/188/3 177/189/3 178/190/3 183/191/3 185/192/3 186/193/3 184/194/3 191/195/3 193/196/3 194/197/3 192/198/3 200/199/3 201/200/3 202/201/3 199/202/3
f 168/170/3 162/169/3 160/174/3 167/173/3
f 152/167/3 154/176/3 159/175/3 161/168/3
f 146/117/3 111/116/3 109/179/3 144/178/3
f 138/166/3 129/165/3 128/124/3 136/123/3
f 130/164/3 118/163/3 120/107/3 127/125/3
f 121/161/3 104/160/3 101/109/3 119/108/3
f 112/115/3 79/114/3 77/181/3 110/180/3
f 95/157/3 96/110/3 101/109/3 102/158/3
f 94/156/3 87/155/3 88/112/3 93/111/3
f 80/153/3 79/114/3 85/113/3 86/154/3
f 80/153/3 47/152/3 45/183/3 78/182/3
f 72/144/3 63/143/3 64/148/3 71/147/3
f 55/141/3 56/150/3 61/149/3 62/142/3
f 48/139/3 47/152/3 53/151/3 54/140/3
f 48/139/3 13/138/3 15/185/3 46/184/3
f 30/129/3 32/134/3 40/133/3 39/130/3
f 29/128/3 22/127/3 24/136/3 31/135/3
f 21/126/3 14/104/3 13/138/3 23/137/3
f 5/186/4 6/105/4 2/203/4 1/204/4
f 5/186/5 1/205/5 171/206/5 176/187/5
f 178/190/5 174/207/5 179/208/5 183/191/5
f 184/194/5 180/209/5 187/210/5 191/195/5
f 192/198/5 188/211/5 195/212/5 200/199/5
f 3/213/5 7/103/5 199/202/5 196/214/5
f 8/102/6 4/215/6 2/216/6 6/105/6
f 11/217/4 12/218/4 13/219/4 14/220/4
f 15/221/2 9/222/2 10/223/2 16/224/2
f 12/225/6 9/226/6 15/227/6 13/228/6
f 10/229/5 11/230/5 14/231/5 16/232/5
f 17/217/4 20/218/4 24/219/4 22/220/4
f 18/223/2 21/224/2 23/221/2 19/222/2
f 20/225/6 19/226/6 23/227/6 24/228/6
f 17/230/5 22/231/5 21/232/5 18/229/5
f 25/217/4 28/218/4 32/219/4 30/220/4
f 26/223/2 29/224/2 31/221/2 27/222/2
f 28/225/6 27/226/6 31/227/6 32/228/6
f 25/230/5 30/231/5 29/232/5 26/229/5
f 34/217/4 33/218/4 38/219/4 37/220/4
f 35/223/2 39/224/2 40/221/2 36/222/2
f 33/225/6 36/226/6 40/227/6 38/228/6
f 34/230/5 37/231/5 39/232/5 35/229/5
f 43/233/4 44/234/4 47/235/4 48/236/4
f 45/237/2 41/238/2 42/239/2 46/240/2
f 44/241/6 41/242/6 45/243/6 47/244/6
f 43/245/5 48/246/5 46/247/5 42/248/5
f 52/233/4 51/234/4 56/235/4 55/236/4
f 53/237/2 49/238/2 50/239/2 54/240/2
f 51/241/6 49/242/6 53/243/6 56/244/6
f 50/248/5 52/245/5 55/246/5 54/247/5
f 58/233/4 60/234/4 64/235/4 63/236/4
f 57/239/2 62/240/2 61/237/2 59/238/2
f 60/241/6 59/242/6 61/243/6 64/244/6
f 58/245/5 63/246/5 62/247/5 57/248/5
f 67/233/4 68/234/4 70/235/4 69/236/4
f 65/239/2 72/240/2 71/237/2 66/238/2
f 68/241/6 66/242/6 71/243/6 70/244/6
f 65/248/5 67/245/5 69/246/5 72/247/5
f 76/233/4 75/234/4 79/235/4 80/236/4
f 77/237/2 73/238/2 74/239/2 78/240/2
f 75/241/6 73/242/6 77/243/6 79/244/6
f 76/245/5 80/246/5 78/247/5 74/248/5
f 83/233/4 84/234/4 88/235/4 87/236/4
f 85/237/2 81/238/2 82/239/2 86/240/2
f 88/244/6 84/241/6 81/242/6 85/243/6
f 82/248/5 83/245/5 87/246/5 86/247/5
f 90/233/4 92/234/4 96/235/4 95/236/4
f 89/239/2 94/240/2 93/237/2 91/238/2
f 92/241/6 91/242/6 93/243/6 96/244/6
f 89/248/5 90/245/5 95/246/5 94/247/5
f 97/233/4 98/234/4 104/235/4 103/236/4
f 101/237/2 99/238/2 100/239/2 102/240/2
f 98/241/6 99/242/6 101/243/6 104/244/6
f 97/245/5 103/246/5 102/247/5 100/248/5
f 108/233/4 107/234/4 111/235/4 112/236/4
f 109/237/2 105/238/2 106/239/2 110/240/2
f 107/241/6 105/242/6 109/243/6 111/244/6
f 108/245/5 112/246/5 110/247/5 106/248/5
f 113/233/4 114/234/4 122/235/4 121/236/4
f 118/237/2 116/238/2 117/239/2 120/240/2
f 114/241/6 116/242/6 118/243/6 122/244/6
f 119/249/5 120/247/5 117/248/5 115/250/5 113/245/5 121/246/5
f 126/233/4 125/234/4 130/235/4 127/236/4
f 124/239/2 128/240/2 129/237/2 123/238/2
f 130/244/6 125/241/6 123/242/6 129/243/6
f 126/245/5 127/246/5 128/247/5 124/248/5
f 136/236/4 132/233/4 134/234/4 138/235/4
f 131/239/2 135/240/2 137/237/2 133/238/2
f 134/241/6 133/242/6 137/243/6 138/244/6
f 132/245/5 136/246/5 135/247/5 131/248/5
f 146/236/4 142/233/4 141/234/4 145/235/4
f 143/237/2 139/238/2 140/239/2 144/240/2
f 141/241/6 139/242/6 143/243/6 145/244/6
f 144/247/5 140/248/5 142/245/5 146/246/5
f 152/236/4 150/233/4 148/234/4 154/235/4
f 153/237/2 147/238/2 149/239/2 151/240/2
f 148/241/6 147/242/6 153/243/6 154/244/6
f 150/245/5 152/246/5 151/247/5 149/248/5
f 158/233/4 156/234/4 160/235/4 162/236/4
f 159/237/2 155/238/2 157/239/2 161/240/2
f 156/241/6 155/242/6 159/243/6 160/244/6
f 157/248/5 158/245/5 162/246/5 161/247/5
f 163/233/4 164/234/4 170/235/4 169/236/4
f 167/237/2 165/238/2 166/239/2 168/240/2
f 170/244/6 164/241/6 165/242/6 167/243/6
f 163/245/5 169/246/5 168/247/5 166/248/5
f 178/251/4 177/220/4 173/217/4 174/252/4
f 171/253/2 172/223/2 175/224/2 176/254/2
f 175/232/5 172/229/5 173/230/5 177/231/5
f 184/251/4 186/220/4 182/217/4 180/252/4
f 179/253/2 181/223/2 185/224/2 183/254/2
f 182/230/5 186/231/5 185/232/5 181/229/5
f 192/251/4 194/220/4 190/217/4 188/252/4
f 187/253/2 189/223/2 193/224/2 191/254/2
f 190/230/5 194/231/5 193/232/5 189/229/5
f 199/251/4 202/220/4 198/217/4 196/252/4
f 195/253/2 197/223/2 201/224/2 200/254/2
f 201/232/5 197/229/5 198/230/5 202/231/5
o Cube
v -0.500000 0.000000 4.021617
v -0.500000 4.000000 4.021617
v -0.500000 0.000000 4.001617
v -0.500000 4.000000 4.001617
v 0.500000 0.000000 4.021617
v 0.500000 4.000000 4.021617
v 0.500000 0.000000 4.001617
v 0.500000 4.000000 4.001617
vn -1.0000 -0.0000 -0.0000
vn -0.0000 -0.0000 -1.0000
vn 1.0000 -0.0000 -0.0000
vn -0.0000 -0.0000 1.0000
vn -0.0000 -1.0000 -0.0000
vn -0.0000 1.0000 -0.0000
vt 0.375000 0.000000
vt 0.625000 0.000000
vt 0.625000 0.250000
vt 0.375000 0.250000
vt 0.625000 0.500000
vt 0.375000 0.500000
vt 0.625000 0.750000
vt 0.375000 0.750000
vt 0.625000 1.000000
vt 0.375000 1.000000
vt 0.125000 0.500000
vt 0.125000 0.750000
vt 0.875000 0.500000
vt 0.875000 0.750000
s 0
usemtl Material
f 203/255/7 204/256/7 206/257/7 205/258/7
f 205/258/8 206/257/8 210/259/8 209/260/8
f 209/260/9 210/259/9 208/261/9 207/262/9
f 207/262/10 208/261/10 204/263/10 203/264/10
f 205/265/11 209/260/11 207/262/11 203/266/11
f 210/259/12 206/267/12 204/268/12 208/261/12
o Cube.001
v -0.500000 0.000000 -3.999720
v -0.500000 4.000000 -3.999720
v -0.500000 0.000000 -4.019720
v -0.500000 4.000000 -4.019720
v 0.500000 0.000000 -3.999720
v 0.500000 4.000000 -3.999720
v 0.500000 0.000000 -4.019720
v 0.500000 4.000000 -4.019720
vn -1.0000 -0.0000 -0.0000
vn -0.0000 -0.0000 -1.0000
vn 1.0000 -0.0000 -0.0000
vn -0.0000 -0.0000 1.0000
vn -0.0000 -1.0000 -0.0000
vn -0.0000 1.0000 -0.0000
vt 0.375000 0.000000
vt 0.625000 0.000000
vt 0.625000 0.250000
vt 0.375000 0.250000
vt 0.625000 0.500000
vt 0.375000 0.500000
vt 0.625000 0.750000
vt 0.375000 0.750000
vt 0.625000 1.000000
vt 0.375000 1.000000
vt 0.125000 0.500000
vt 0.125000 0.750000
vt 0.875000 0.500000
vt 0.875000 0.750000
s 0
usemtl Material.001
f 211/269/13 212/270/13 214/271/13 213/272/13
f 213/272/14 214/271/14 218/273/14 217/274/14
f 217/274/15 218/273/15 216/275/15 215/276/15
f 215/276/16 216/275/16 212/277/16 211/278/16
f 213/279/17 217/274/17 215/276/17 211/280/17
f 218/273/18 214/281/18 212/282/18 216/275/18
