# Blender 4.2.2 LTS
# www.blender.org
mtllib Kej1mCoGo.mtl
o Cube.001
v -0.250000 0.000000 1.019663
v -0.250000 4.000000 1.019663
v -0.250000 0.000000 0.999663
v -0.250000 4.000000 0.999663
v 0.250000 0.000000 1.019663
v 0.250000 4.000000 1.019663
v 0.250000 0.000000 0.999663
v 0.250000 4.000000 0.999663
v 0.250000 4.000000 -1.000000
v 0.250000 0.000000 -1.000000
v 0.250000 4.000000 1.000000
v 0.250000 0.000000 1.000000
v -0.250000 4.000000 -1.000000
v -0.250000 0.000000 -1.000000
v -0.250000 4.000000 1.000000
v -0.250000 0.000000 1.000000
v -0.250000 3.270396 0.878052
v -0.250000 3.870396 0.878052
v -0.250000 3.870396 -0.881948
v -0.250000 3.270396 -0.881948
v 0.250000 3.870396 0.878052
v 0.250000 3.270396 -0.881948
v 0.250000 3.870396 -0.881948
v 0.250000 3.270396 0.878052
v -0.250000 2.548412 0.878052
v -0.250000 3.148412 0.878052
v -0.250000 3.148412 -0.881948
v -0.250000 2.548412 -0.881948
v 0.250000 3.148412 -0.881948
v 0.250000 2.548412 -0.881948
v 0.250000 2.548412 0.878052
v 0.250000 3.148412 0.878052
v -0.250000 1.824465 0.878052
v -0.250000 2.424465 0.878052
v -0.250000 2.424465 -0.881948
v -0.250000 1.824465 -0.881948
v 0.250000 2.424465 -0.881948
v 0.250000 1.824465 -0.881948
v 0.250000 1.824465 0.878052
v 0.250000 2.424465 0.878052
v -0.250000 1.101392 0.878052
v -0.250000 1.701392 0.878052
v -0.250000 1.701392 -0.881948
v -0.250000 1.101392 -0.881948
v 0.250000 1.701392 -0.881948
v 0.250000 1.101392 -0.881948
v 0.250000 1.101392 0.878052
v 0.250000 1.701392 0.878052
v -0.250000 0.371920 0.878052
v -0.250000 0.971920 0.878052
v -0.250000 0.971920 -0.881948
v -0.250000 0.371920 -0.881948
v 0.250000 0.971920 -0.881948
v 0.250000 0.371920 -0.881948
v 0.250000 0.371920 0.878052
v 0.250000 0.971920 0.878052
v -0.250000 0.239753 0.878052
v -0.250000 0.000000 0.878052
v -0.250000 0.239753 -0.881948
v -0.250000 0.000000 -0.881948
v 0.250000 0.000000 0.878052
v 0.250000 0.000000 -0.881948
v 0.250000 0.239753 -0.881948
v 0.250000 0.239753 0.878052
v -0.250000 0.000000 -0.999700
v -0.250000 4.000000 -0.999700
v -0.250000 0.000000 -1.019700
v -0.250000 4.000000 -1.019700
v 0.250000 0.000000 -0.999700
v 0.250000 4.000000 -0.999700
v 0.250000 0.000000 -1.019700
v 0.250000 4.000000 -1.019700
vn -1.0000 -0.0000 -0.0000
vn -0.0000 -0.0000 -1.0000
vn 1.0000 -0.0000 -0.0000
vn -0.0000 -0.0000 1.0000
vn -0.0000 -1.0000 -0.0000
vn -0.0000 1.0000 -0.0000
vt 0.375000 0.000000
vt 0.625000 0.000000
vt 0.625000 0.250000
vt 0.375000 0.250000
vt 0.625000 0.500000
vt 0.375000 0.500000
vt 0.625000 0.750000
vt 0.375000 0.750000
vt 0.625000 1.000000
vt 0.375000 1.000000
vt 0.125000 0.500000
vt 0.125000 0.750000
vt 0.875000 0.500000
vt 0.875000 0.750000
vt 0.616900 0.015243
vt 0.579400 0.015243
vt 0.571776 0.015243
vt 0.534276 0.015243
vt 0.526529 0.015243
vt 0.489029 0.015243
vt 0.481337 0.015243
vt 0.443837 0.015243
vt 0.435745 0.015243
vt 0.398245 0.015243
vt 0.398245 0.235243
vt 0.435745 0.235243
vt 0.443837 0.235243
vt 0.481337 0.235243
vt 0.489029 0.235243
vt 0.526529 0.235243
vt 0.534276 0.235243
vt 0.571776 0.235243
vt 0.579400 0.235243
vt 0.616900 0.235243
vt 0.375000 0.235243
vt 0.389985 0.235243
vt 0.389984 0.015243
vt 0.375000 0.015243
vt 0.125000 0.734757
vt 0.375000 0.734757
vt 0.375000 0.514757
vt 0.125000 0.514757
vt 0.616900 0.514757
vt 0.579400 0.514757
vt 0.571776 0.514757
vt 0.534276 0.514757
vt 0.526529 0.514757
vt 0.489029 0.514757
vt 0.481337 0.514757
vt 0.443837 0.514757
vt 0.435745 0.514756
vt 0.398245 0.514757
vt 0.398245 0.734757
vt 0.435745 0.734757
vt 0.443837 0.734757
vt 0.481337 0.734757
vt 0.489029 0.734757
vt 0.526529 0.734756
vt 0.534276 0.734756
vt 0.571776 0.734757
vt 0.579400 0.734757
vt 0.616900 0.734757
vt 0.389985 0.734757
vt 0.389985 0.514757
vt 0.625000 0.437500
vt 0.625000 0.312500
vt 0.375000 0.312500
vt 0.375000 0.437500
vt 0.375000 0.812500
vt 0.375000 0.937500
vt 0.625000 0.937500
vt 0.625000 0.812500
vt 0.187500 0.500000
vt 0.187500 0.750000
vt 0.312500 0.750000
vt 0.312500 0.500000
vt 0.812500 0.500000
vt 0.687500 0.500000
vt 0.687500 0.750000
vt 0.812500 0.750000
vt 0.525103 0.437500
vt 0.525103 0.312500
vt 0.525103 0.937500
vt 0.525103 0.812500
s 0
usemtl Material.002
f 1/1/1 2/2/1 4/3/1 3/4/1
f 3/4/2 4/3/2 8/5/2 7/6/2
f 7/6/3 8/5/3 6/7/3 5/8/3
f 5/8/4 6/7/4 2/9/4 1/10/4
f 3/11/5 7/6/5 5/8/5 1/12/5
f 8/5/6 4/13/6 2/14/6 6/7/6
usemtl Material.001
f 9/5/6 13/13/6 15/14/6 11/7/6
f 12/8/4 11/7/4 15/9/4 16/10/4
f 16/1/1 15/2/1 18/15/1 17/16/1 26/17/1 25/18/1 34/19/1 33/20/1 42/21/1 41/22/1 50/23/1 49/24/1 52/25/1 51/26/1 44/27/1 43/28/1 36/29/1 35/30/1 28/31/1 27/32/1 20/33/1 19/34/1 13/3/1 14/4/1 60/35/1 59/36/1 57/37/1 58/38/1
f 50/23/1 41/22/1 44/27/1 51/26/1
f 42/21/1 33/20/1 36/29/1 43/28/1
f 34/19/1 25/18/1 28/31/1 35/30/1
f 17/16/1 20/33/1 27/32/1 26/17/1
f 15/2/1 13/3/1 19/34/1 18/15/1
f 12/8/5 16/12/5 58/39/5 61/40/5
f 14/11/5 10/6/5 62/41/5 60/42/5
f 10/6/3 9/5/3 23/43/3 22/44/3 29/45/3 30/46/3 37/47/3 38/48/3 45/49/3 46/50/3 53/51/3 54/52/3 55/53/3 56/54/3 47/55/3 48/56/3 39/57/3 40/58/3 31/59/3 32/60/3 24/61/3 21/62/3 11/7/3 12/8/3 61/40/3 64/63/3 63/64/3 62/41/3
f 53/51/3 46/50/3 47/55/3 56/54/3
f 45/49/3 38/48/3 39/57/3 48/56/3
f 37/47/3 30/46/3 31/59/3 40/58/3
f 29/45/3 22/44/3 24/61/3 32/60/3
f 23/43/3 9/5/3 11/7/3 21/62/3
f 14/4/2 13/3/2 9/5/2 10/6/2
f 23/65/4 19/66/4 20/67/4 22/68/4
f 24/69/2 17/70/2 18/71/2 21/72/2
f 20/73/6 17/74/6 24/75/6 22/76/6
f 19/77/5 23/78/5 21/79/5 18/80/5
f 27/66/4 28/67/4 30/68/4 29/65/4
f 31/69/2 25/70/2 26/71/2 32/72/2
f 28/73/6 25/74/6 31/75/6 30/76/6
f 26/80/5 27/77/5 29/78/5 32/79/5
f 35/66/4 36/67/4 38/68/4 37/65/4
f 39/69/2 33/70/2 34/71/2 40/72/2
f 36/73/6 33/74/6 39/75/6 38/76/6
f 34/80/5 35/77/5 37/78/5 40/79/5
f 43/66/4 44/67/4 46/68/4 45/65/4
f 47/69/2 41/70/2 42/71/2 48/72/2
f 44/73/6 41/74/6 47/75/6 46/76/6
f 42/80/5 43/77/5 45/78/5 48/79/5
f 51/66/4 52/67/4 54/68/4 53/65/4
f 55/69/2 49/70/2 50/71/2 56/72/2
f 52/73/6 49/74/6 55/75/6 54/76/6
f 50/80/5 51/77/5 53/78/5 56/79/5
f 62/81/4 63/65/4 59/66/4 60/82/4
f 58/83/2 57/71/2 64/72/2 61/84/2
f 64/79/5 57/80/5 59/77/5 63/78/5
usemtl Material.003
f 65/1/1 66/2/1 68/3/1 67/4/1
f 67/4/2 68/3/2 72/5/2 71/6/2
f 71/6/3 72/5/3 70/7/3 69/8/3
f 69/8/4 70/7/4 66/9/4 65/10/4
f 67/11/5 71/6/5 69/8/5 65/12/5
f 72/5/6 68/13/6 66/14/6 70/7/6
